<svg xmlns="http://www.w3.org/2000/svg" viewBox="0 0 180 105.15"><defs><style>.cls-1{fill:#fff;fill-rule:evenodd;}</style></defs><g id="Layer_2" data-name="Layer 2"><g id="Layer_1-2" data-name="Layer 1"><path class="cls-1" d="M119.64,45.5a9.54,9.54,0,0,1-5.26,1.41,32.68,32.68,0,0,1-9.91-1.41,10.51,10.51,0,0,0-1.82-.41c-.6,0-.8.41-.8,1.22v2a2.9,2.9,0,0,0,.4,1.41,3,3,0,0,0,1.21.81,26.92,26.92,0,0,0,10.92,2c4.25,0,7.48-1,10.11-3a9.51,9.51,0,0,0,3.84-8.09,9.19,9.19,0,0,0-1.82-5.86,14.17,14.17,0,0,0-6.06-3.84l-5.66-2.23c-2.23-.81-3.85-1.61-4.45-2.42a3.83,3.83,0,0,1-1.22-3c0-3,2.23-4.65,6.88-4.65a24.36,24.36,0,0,1,7.68,1.22c.81.2,1.42.4,1.62.4.61,0,1-.4,1-1.21v-2a2.93,2.93,0,0,0-.4-1.41c-.2-.41-.61-.61-1.22-.81A28.76,28.76,0,0,0,115.6,14a15.61,15.61,0,0,0-9.51,2.83,9,9,0,0,0-3.64,7.49c0,4.65,2.63,8.08,7.89,10.11l6.06,2.22a12,12,0,0,1,4,2.22,3.53,3.53,0,0,1,1,2.84,4.46,4.46,0,0,1-1.82,3.84ZM141.28,1.21A4.77,4.77,0,0,0,137.84,0a4.27,4.27,0,0,0-3.24,1.21,4.11,4.11,0,0,0-1.21,3,3.81,3.81,0,0,0,1.21,3,4.93,4.93,0,0,0,6.47,0,4.12,4.12,0,0,0,1.22-3,3.75,3.75,0,0,0-1-3ZM140.06,15h-4.24c-1,0-1.42.41-1.42,1.42V50c0,1,.41,1.41,1.42,1.41h4.24c1,0,1.42-.4,1.42-1.41V16.38A1.28,1.28,0,0,0,140.06,15Zm19,8.09c1.82-2,4.65-3,8.7-3a18.58,18.58,0,0,1,5.86.81,3,3,0,0,0,1.21.2c.61,0,1-.4,1-1.42v-2a2.37,2.37,0,0,0-.4-1.41,4.2,4.2,0,0,0-1-.81,35.46,35.46,0,0,0-7.69-1.22c-5.66,0-9.9,1.62-13.14,5.06-3,3.24-4.65,8.09-4.65,14.15s1.42,10.72,4.45,14,7.28,4.85,12.94,4.85a19.83,19.83,0,0,0,8.09-1.42,1.83,1.83,0,0,0,1.21-.8,2.65,2.65,0,0,0,.2-1.42v-2c0-1-.4-1.42-1-1.42a2.14,2.14,0,0,0-1,.21,25.51,25.51,0,0,1-6.47,1q-5.76,0-8.49-3c-1.82-2-2.63-5.25-2.63-9.5v-1c.2-4.45,1-7.69,2.83-9.71ZM49.47,51.36h4.25c1,0,1.41-.4,1.41-1.41V24.67c0-3.44-.8-6.07-2.62-7.89A10.24,10.24,0,0,0,44.82,14,23.77,23.77,0,0,0,30.67,19C29.05,15.57,26,14,21.57,14s-8.9,1.62-13.35,4.65l-.4-2.22a.94.94,0,0,0-.61-1,1.53,1.53,0,0,0-1-.2H3c-1,0-1.41.4-1.41,1.41V50.15c0,1,.4,1.41,1.41,1.41H7.21c1,0,1.42-.4,1.42-1.41V22.85a20.6,20.6,0,0,1,10.51-3.24q3,0,4.25,1.82a9.1,9.1,0,0,1,1.41,5.26V50c0,1,.41,1.41,1.42,1.41h4.24c1,0,1.42-.4,1.42-1.41V22.85a19.9,19.9,0,0,1,10.51-3.24c2,0,3.44.61,4.25,1.82a9.1,9.1,0,0,1,1.42,5.26V50c0,1,.4,1.41,1.41,1.41Zm38.42-35V43.27a19,19,0,0,1-10.31,3.44q-3.33,0-4.85-1.82c-1-1.21-1.42-3-1.42-5.66V16.38c0-1-.4-1.42-1.41-1.42H65.65c-1,0-1.42.41-1.42,1.42V41.45c0,3.44.81,6.27,2.63,8.09s4.45,2.83,7.89,2.83A23.3,23.3,0,0,0,88.5,47.52L88.9,50a1,1,0,0,0,.61,1c.2.2.61.2,1.21.2h3c1,0,1.41-.41,1.41-1.42V16.38c0-1-.4-1.42-1.41-1.42H89.51c-1.21,0-1.62.61-1.62,1.42Z"/><path class="cls-1" d="M168.17,97.26c10.51-8.89,13.35-27.3,11.12-30.13-1-1.21-5.86-2.42-11.93-2.42-6.47,0-14.15,1.41-20,5.46-1.82,1.21-1.41,2.83.41,2.63,6.27-.81,20.42-2.43,23.05.8,2.43,3.24-2.83,16.59-5.26,22.45-.61,1.82.81,2.43,2.63,1.21Zm-8.49-19A178.46,178.46,0,0,1,91.73,92.21c-32.35,0-63.69-8.9-89-23.66a2.9,2.9,0,0,0-1.21-.41c-1.42,0-2.23,1.62-.81,3a131.82,131.82,0,0,0,89,34c24.67,0,53.18-7.68,72.8-22.24,3.44-2.43.6-6.07-2.83-4.65Z"/></g></g></svg>