<svg xmlns="http://www.w3.org/2000/svg" viewBox="0 0 584.08 854.78"><defs><style>.cls-1{fill:#fff;}</style></defs><g id="Layer_2" data-name="Layer 2"><g id="Layer_1-2" data-name="Layer 1"><path class="cls-1" d="M217.87,826.71c-2-1.72-2.77-2.8-3.84-3.28-10.3-4.66-16.61-12.83-21.87-22.61C185.34,788.13,177.43,776,170,763.67c-7.66-12.71-15.37-25.4-23-38.13-13.35-22.28-26.86-44.47-39.9-66.93-8.28-14.27-15.77-29-23.74-43.44-11-19.85-22.14-39.57-33-59.47C43,542.3,36.18,528.65,29,515.16c-6.75-12.74-14-25.22-19.26-38.72-1.62-4.15-4.33-8-7-11.62-3.94-5.44-3.39-10.83-.43-16.25a40.72,40.72,0,0,1,5-7c3.23-3.74,6.83-7.15,10-10.92s7.58-5,12.26-4.28a119.35,119.35,0,0,1,14.42,3.41,9.3,9.3,0,0,1,3.84,2.9c2.19,2.43,4.18,5,6.68,8.11,18.28-.13,36.81,1.32,55.26-1.71a60.8,60.8,0,0,1,7.34-.91,362.35,362.35,0,0,0,57.58-7c9.57-2,19.39-2.73,29.68-4.12a63.53,63.53,0,0,0,.83-7.63c-.09-8.25-.23-16.51-.63-24.76-1.79-37.07-4-74.14-5.37-111.23-.64-17.7.33-35.45.62-53.18.22-13.2.4-26.4.79-39.6.54-18.14,1.53-36.28,1.81-54.42.17-10.69-.8-21.4-1-32.1-.13-7,.17-14,.32-21a10.16,10.16,0,0,1,4.38-8.43c3.65-2.67,7.3-5.43,8.92-10.27a15.39,15.39,0,0,0-1.39-3.14c-3.44-4.76-2.53-9.18.58-13.71C218.27,41.79,222,35.88,225.81,30a76.25,76.25,0,0,1,15.56-17.49C245.63,9,250,6.47,255.78,6.29c2.75-.09,5.5-1.35,8.18-2.27,3.51-1.2,6.94-2.58,10.76-4,2.55,1.11,5.19,2.2,7.78,3.39a16.6,16.6,0,0,1,9.88,13.34,182,182,0,0,1,1.94,23.41c.1,9.87-.89,19.74-1,29.62-.29,24.75-.72,49.48.62,74.23.94,17.29.43,34.65.57,52,.21,26.82.58,53.63.58,80.44,0,16.49-.64,33-.83,49.46q-.24,20.38-.08,40.77c.09,14.44.36,28.88.62,43.32,0,2,.43,3.94.73,6.52a57.66,57.66,0,0,0,6.44.23c22.59-1.87,45.2-3.67,67.77-5.79,11.49-1.07,22.93-2.68,34.37-4.19a581.55,581.55,0,0,1,82.67-5c9.47.11,18.94.74,28.41,1.27,6,.35,6.21.57,14.72,8.6,4.81-1.21,8.25-4.83,12-8,4.52-3.76,9.17-4.69,14.86-2,4.39,2.08,9.34,3.92,14.11,4.09,11.51.41,17.23,18.4,10,26-14.34,15-25.76,32.18-38.17,48.63-15.89,21.07-31.43,42.4-47.22,63.55-6.66,8.92-13.62,17.61-20.32,26.5C461.73,588.16,448.42,606,435,623.83c-9.14,12.18-17.89,24.67-27.59,36.38-8.66,10.46-18.57,19.86-27.57,30-16.94,19.14-33.86,38.29-50.34,57.82-17,20.19-32.14,41.86-47.07,63.63a76.83,76.83,0,0,0-5.22,9.83A87.65,87.65,0,0,1,257.83,847c-10.43,9.71-27.3,10.33-38.78,2-3-2.16-4.25-4.88-3.59-8.53C216.27,836,217,831.58,217.87,826.71Zm80.78-184.27c4.76-1.3,9.76-2.07,14.25-4,19-8.18,38.87-13.84,58.86-18.77,8.43-2.08,13.74-6.26,18.32-13.12,8.93-13.37,18.23-26.48,27.68-39.49q28.69-39.54,57.73-78.85c8.79-12,17.77-23.8,26.58-35.75,1.89-2.55,4.56-4.9,3.41-9.54-2.83-.5-5.94-1.28-9.1-1.58-20.61-1.92-41.24-1-61.82.19-14,.83-27.88,3-41.81,4.57-4.08.45-7,2.22-8,6.5-.82,3.73-2.34,7.1-5.53,9.38-9.06,6.45-17.85,13.36-27.36,19.07s-19.81,10.14-29.69,15.25c-2.83,1.46-6.1,2.43-8.41,6.45a41.52,41.52,0,0,0,6.32-.86c5.11-1.56,10.1-3.52,15.23-5,8.3-2.43,16.63-4.78,25-6.86,11.59-2.88,23.18-5.93,34.91-8.08,10.12-1.86,20.35-2.45,30.75-.57,12.77,2.32,22,12.88,16.69,29.83-3,9.45-9.71,16.36-16.24,22.9S411.73,546,403.55,550.66c-7.65,4.35-14.15,9.87-20.66,15.54a40.51,40.51,0,0,1-4.89,3.67c-10.4,6.63-20.88,13.16-29.12,22.56-4.38,1.17-5,6.61-8.62,8.05-2.9,1.16-4.48,3.29-6.7,4.92-2.44,1.79-6,2-8.87,3.3a26.69,26.69,0,0,0-5.09,3.45q-9.83,7.49-19.59,15.06c-1.85,1.44-3.59,3-5.46,4.61,1.6,4,3,7.41,4.24,10.73a16.78,16.78,0,0,0-2.12-.76c-.23-.06-.55.27-.83.42Zm-182.39-80c15.48-10.08,30.1-20,45.08-29.24s30.39-18,45.48-26.91c.34-5.27,1-9.69-2.07-14-2.78.67-5.16,1.2-7.51,1.83C175.35,500,153.5,506,131.58,511.79c-10,2.63-20.07,4.78-30.08,7.26-2.29.56-5,.8-6.12,4.38C101.11,536.44,108.66,549,116.26,562.44Zm59.88,102c8.37-7.06,16.21-13.64,24-20.25,3.71-3.14,5.24-7.12,5.09-12-.27-8.66-.14-17.33-.28-26,0-2.33-.46-4.66-.79-7.71-7.57.75-12.7,5.24-18.59,7.81-6,2.64-12.21,5.06-18.07,8.07-5.67,2.91-12.89,3-17.32,8.94C157.36,637.94,165.49,651.59,176.14,664.48ZM345.88,537.15c-17.58,7.05-36.17,11.08-52.24,20.33-1.48,11.73-1.48,11.73,1.79,18.28A422.57,422.57,0,0,0,345.88,537.15ZM213.7,728.22l2.39-1a39.28,39.28,0,0,0-1.78-6.42c-.32-.7-2.19-1.26-3.06-1a3.06,3.06,0,0,0-1.31,2.75A45.49,45.49,0,0,0,213.7,728.22Z"/></g></g></svg>