<svg xmlns="http://www.w3.org/2000/svg">
<defs>
<font horiz-adv-x="2035" id="ywftsvg"><font-face ascent="1638" bbox="-2169 -573 5530.95 2097" cap-height="1436" descent="-410" font-family="" font-stretch="normal" font-weight="700" panose-1="0 0 0 0 0 0 0 0 0 0" underline-position="0" underline-thickness="0" unicode-range="U+0020-1F10C" units-per-em="2048" x-height="1188"/><missing-glyph d="M1862 1454v-1454h-1770v1454h1770zM141 1415v-26h236l80 -287h243v33h-217l-84 280h-258zM1495 1102l80 287h240v26h-265l-80 -280h-213v-33h238zM141 350v-28h236l80 -283h243v29h-217l-84 282h-258zM1257 68v-29h238l80 283h240v28h-265l-80 -282h-213zM141 678h236 l80 -285h243v31h-217l-84 278h-258v-24zM1257 393h238l80 285h240v24h-265l-80 -278h-213v-31zM377 1032l80 -280h243v24h-217l-84 285h-258v-29h236zM1257 752h238l80 280h240v29h-265l-80 -285h-213v-24zM1141 754h33q66 53 65 151v6q0 88 -65 150h-33q61 -70 61 -150v-10 q0 -81 -61 -147zM1141 1104h33q66 70 65 158v6q0 86 -65 147h-33q61 -70 61 -147v-13q0 -77 -61 -151zM1202 201v-13q0 -78 -61 -147h33q66 66 65 152v8q0 88 -65 149h-33q61 -65 61 -149zM1174 702h-33q61 -66 61 -147v-8q0 -82 -61 -152h33q66 66 65 154v6q1 90 -65 147z M754 905v8q0 74 61 148h-31q-66 -61 -65 -150v-6q0 -98 65 -151h31q-61 69 -61 151zM754 1262v8q0 72 61 145h-31q-66 -61 -65 -147v-6q0 -88 65 -158h31q-61 78 -61 158zM754 193v10q0 78 61 147h-31q-66 -61 -65 -149v-8q0 -86 65 -152h31q-61 74 -61 152zM754 549v8 q0 80 61 145h-31q-66 -57 -65 -147v-6q0 -88 65 -154h31q-61 74 -61 154zM915 799l21 -31q145 72 160 244l-31 8q-13 -160 -150 -221zM915 88l21 -29q145 70 160 244l-31 6q-13 -160 -150 -221zM915 442l21 -28q145 70 160 245l-31 7q-13 -169 -150 -224zM915 1153l21 -27 q145 70 160 240l-31 10q-13 -162 -150 -223zM881 301l-29 -10q25 -55 31 -107l37 11q-12 49 -39 106zM965 678l-31 -10q20 -53 29 -107l32 8q-14 70 -30 109zM881 655l-29 -10q25 -59 31 -104l37 12q-16 57 -39 102zM963 1274l32 6q-12 66 -30 109l-31 -11q21 -57 29 -104z M965 1032l-31 -8q23 -68 29 -106l32 8q-14 69 -30 106zM965 324l-31 -9q23 -68 29 -106l32 8q-16 74 -30 107zM881 1364l-29 -10q25 -55 31 -101l37 11
<glyph d="M352 0v922h-272v266h276q0 268 103.5 364.5t363.5 96.5h465v-285h-295q-180 0 -226 -26.5t-46 -149.5h893q0 268 103.5 364.5t363.5 96.5h465v-285h-295q-180 0 -226.5 -26.5t-46.5 -149.5h568v-266h-574v-922h-362v922h-895v-922h-363z" glyph-name="f_f.liga" horiz-adv-x="2625" unicode="ff"/><glyph d="M1821 1188v-1188h-361v922h-745v-922h-363v922h-272v266h276q0 268 103.5 364.5t363.5 96.5h465v-285h-295q-180 0 -226 -26.5t-46 -149.5h1100z" glyph-name="f_i.liga" horiz-adv-x="1888" unicode="fi"/><glyph d="M2068 1188h603v-266h-603v-340q0 -188 40 -241.5t198 -53.5h365v-297h-506q-135 0 -215 17.5t-138.5 71.5t-81 149.5t-22.5 252.5v441h-993v-922h-363v922h-272v266h276q0 268 103.5 364.5t363.5 96.5h465v-285h-295q-180 0 -226 -26.5t-46 -149.5h987v246h360v-246z" glyph-name="f_t.liga" horiz-adv-x="2822" unicode="ft"/><glyph d="M3078 1188v-1188h-360v922h-746v-922h-362v922h-895v-922h-363v922h-272v266h276q0 268 103.5 364.5t363.5 96.5h465v-285h-295q-180 0 -226 -26.5t-46 -149.5h893q0 268 103.5 364.5t363.5 96.5h465v-285h-295q-180 0 -226.5 -26.5t-46.5 -149.5h1100z" glyph-name="f_f_i.liga" horiz-adv-x="3145" unicode="ffi"/><glyph d="M2966 481v441h-994v-922h-362v922h-895v-922h-363v922h-272v266h276q0 268 103.5 364.5t363.5 96.5h465v-285h-295q-180 0 -226 -26.5t-46 -149.5h893q0 268 103.5 364.5t363.5 96.5h465v-285h-295q-180 0 -226.5 -26.5t-46.5 -149.5h988v246h360v-246h602v-266h-602 v-340q0 -188 40 -241.5t198 -53.5h364v-297h-506q-135 0 -215 17.5t-138 71.5t-80.5 149t-22.5 253z" glyph-name="f_f_t.liga" horiz-adv-x="4079" unicode="fft"/><glyph d="M2132 1188h602v-266h-602v-340q0 -188 40 -241.5t198 -53.5h364v-297h-506q-135 0 -215 17.5t-138 71.5t-80.5 149.5t-22.5 252.5v441h-1029v-340q0 -188 40 -241.5t198 -53.5h365v-297h-506q-135 0 -215 17.5t-138.5 71.5t-81 149.5t-22.5 252.5v441h-303v266h303v246 h360v-246h1029v246h360v-246z" glyph-name="t_t.liga" horiz-adv-x="2885" unicode="tt"/><glyph d="M1862 1454v-1454h-1770v1454h1770zM141 1415v-26h236l80 -287h243v33h-217l-84 280h-258zM1495 1102l80 287h240v26h-265l-80 -280h-213v-33h238zM141 350v-28h236l80 -283h243v29h-217l-84 282h-258zM1257 68v-29h238l80 283h240v28h-265l-80 -282h-213zM141 678h236 l80 -285h243v31h-217l-84 278h-258v-24zM1257 393h238l80 285h240v24h-265l-80 -278h-213v-31zM377 1032l80 -280h243v24h-217l-84 285h-258v-29h236zM1257 752h238l80 280h240v29h-265l-80 -285h-213v-24zM1141 754h33q66 53 65 151v6q0 88 -65 150h-33q61 -70 61 -150v-10 q0 -81 -61 -147zM1141 1104h33q66 70 65 158v6q0 86 -65 147h-33q61 -70 61 -147v-13q0 -77 -61 -151zM1202 201v-13q0 -78 -61 -147h33q66 66 65 152v8q0 88 -65 149h-33q61 -65 61 -149zM1174 702h-33q61 -66 61 -147v-8q0 -82 -61 -152h33q66 66 65 154v6q1 90 -65 147z M754 905v8q0 74 61 148h-31q-66 -61 -65 -150v-6q0 -98 65 -151h31q-61 69 -61 151zM754 1262v8q0 72 61 145h-31q-66 -61 -65 -147v-6q0 -88 65 -158h31q-61 78 -61 158zM754 193v10q0 78 61 147h-31q-66 -61 -65 -149v-8q0 -86 65 -152h31q-61 74 -61 152zM754 549v8 q0 80 61 145h-31q-66 -57 -65 -147v-6q0 -88 65 -154h31q-61 74 -61 154zM915 799l21 -31q145 72 160 244l-31 8q-13 -160 -150 -221zM915 88l21 -29q145 70 160 244l-31 6q-13 -160 -150 -221zM915 442l21 -28q145 70 160 245l-31 7q-13 -169 -150 -224zM915 1153l21 -27 q145 70 160 240l-31 10q-13 -162 -150 -223zM881 301l-29 -10q25 -55 31 -107l37 11q-12 49 -39 106zM965 678l-31 -10q20 -53 29 -107l32 8q-14 70 -30 109zM881 655l-29 -10q25 -59 31 -104l37 12q-16 57 -39 102zM963 1274l32 6q-12 66 -30 109l-31 -11q21 -57 29 -104z M965 1032l-31 -8q23 -68 29 -106l32 8q-14 69 -30 106zM965 324l-31 -9q23 -68 29 -106l32 8q-16 74 -30 107zM881 1364l-29 -10q25 -55 31 -101l37 11q-16 57 -39 100zM883 897l37 10q-12 51 -39 101l-29 -9q25 -51 31 -102z" glyph-name=".notdef" horiz-adv-x="1953"/><glyph glyph-name="glyph1" horiz-adv-x="614"/><glyph glyph-name="glyph2" horiz-adv-x="681"/><glyph glyph-name="space" horiz-adv-x="999" unicode=" "/><glyph d="M440 418h-350l-31 1016h412zM57 143q0 82 54.5 112t152.5 30q96 0 151.5 -30t55.5 -112q0 -84 -55.5 -113.5t-151.5 -29.5q-98 0 -152.5 29.5t-54.5 113.5z" glyph-name="exclam" horiz-adv-x="530" unicode="!"/><glyph d="M752 1135h-136v450h326v-256zM446 1329l-190 -194h-135v450h325v-256z" glyph-name="quotedbl" horiz-adv-x="1030" unicode="&quot;"/><glyph d="M1808 1434v-248h410v-279h-410v-364h410v-279h-410v-264h-321v264h-524v-264h-320v262h-389v279h389v364h-389v279h389v250h320v-250l524 2v248h321zM963 905v-362h524v364z" glyph-name="numbersign" horiz-adv-x="2469" unicode="#"/><glyph d="M883 -205v187q-399 12 -596 128.5t-197 395.5h389q0 -102 87 -152.5t317 -62.5v299q-410 29 -581 126t-171 318q0 213 190.5 310.5t561.5 107.5v186h245v-188q358 -18 545 -137t187 -361h-390q0 94 -78.5 137.5t-263.5 53.5v-279q166 -10 274.5 -22.5t216 -40t168 -71.5 t97.5 -114.5t37 -171.5q0 -106 -37 -185t-102.5 -130t-168 -84t-218 -46t-267.5 -17v-189zM1542 432q0 53 -33.5 80t-117.5 41t-263 25v-291q231 4 322.5 37.5t91.5 107.5zM883 879v268q-215 -2 -294 -32t-79 -99q0 -68 74 -94.5t299 -42.5z" glyph-name="dollar" horiz-adv-x="2000" unicode="$"/><glyph d="M115 985q0 203 131 327t370.5 124t373.5 -124t134 -327q0 -190 -136 -319t-371.5 -129t-368.5 129t-133 319zM2164.5 0q-235.5 0 -368.5 129t-133 320q0 203 131 326.5t370.5 123.5t374 -124t134.5 -326q0 -190 -136.5 -319.5t-372 -129.5zM856 0h-428l1507 1436h428z M1946 449q0 -113 67.5 -165.5t151.5 -52.5q90 0 157.5 52.5t67.5 165.5q0 115 -67.5 167t-157.5 52q-86 0 -152.5 -52t-66.5 -167zM397 985q0 -113 67.5 -165t151.5 -52q90 0 158 52t68 165q0 115 -67.5 167t-158.5 52q-86 0 -152.5 -52t-66.5 -167z" glyph-name="percent" horiz-adv-x="2783" unicode="%"/><glyph d="M1593 840h228v-234h-228v-350h228v-256h-1250q-258 0 -369.5 104.5t-111.5 305.5q0 287 244 366q-135 86 -135 287q0 373 475 373h608v-256h-524q-104 0 -159.5 -34t-55.5 -136.5t55 -136t160 -33.5h524v166h311v-166zM418 430q0 -104 55 -139t154 -35h655v350h-655 q-98 0 -153.5 -35t-55.5 -141z" glyph-name="ampersand" horiz-adv-x="1898" unicode="&amp;"/><glyph d="M274 1135h-135v450h326v-256z" glyph-name="quotesingle" horiz-adv-x="528" unicode="'"/><glyph d="M92 616.5q0 288.5 60.5 489.5t182.5 316.5t283.5 165.5t385.5 50v-327q-55 0 -92.5 -2t-99.5 -16.5t-104 -39t-92.5 -77t-81 -124t-52 -183t-21.5 -253t21.5 -254t52 -184.5t81 -124t93.5 -77.5t105.5 -40t98 -16.5t91.5 -2v-328q-221 0 -384 50.5t-285 167t-182.5 318.5 t-60.5 490.5z" glyph-name="parenleft" horiz-adv-x="1093" unicode="("/><glyph d="M90 1311v327q223 0 385 -50t284 -165.5t182 -316.5t60 -489.5t-60 -490.5t-182 -318.5t-285 -167t-384 -50.5v328q55 0 91 2t98.5 16.5t105.5 40t93 77.5t81 124t52.5 184.5t21.5 254t-21.5 253t-52.5 183t-81 124t-92 77t-104.5 39t-99.5 16.5t-92 2z" glyph-name="parenright" horiz-adv-x="1091" unicode=")"/><glyph d="M231 868l-129 224l293 108l-293 109l127 223l242 -203l-53 309h258l-53 -307l239 201l129 -223l-295 -109l293 -108l-125 -224l-241 203l53 -309h-258l53 309z" glyph-name="asterisk" horiz-adv-x="1095" unicode="*"/><glyph d="M143 561v330h553v502h351v-502h552v-330h-552v-502h-351v502h-553z" glyph-name="plus" horiz-adv-x="1740" unicode="+"/><glyph d="M332 0h-19q-90 0 -140 33t-50 129q0 94 50 127t140 33t141.5 -33t51.5 -125v-4q0 -309 -250 -310v87q70 0 76 63z" glyph-name="comma" horiz-adv-x="630" unicode=","/><glyph d="M1677 502h-1554v332h1554v-332z" glyph-name="hyphen" horiz-adv-x="1800" unicode="-"/><glyph d="M123 162q0 94 50 127t140 33t141.5 -33t51.5 -127t-51.5 -128t-141.5 -34t-140 33t-50 129z" glyph-name="period" horiz-adv-x="630" unicode="."/><glyph d="M463 -307h-375l543 1782h373z" glyph-name="slash" horiz-adv-x="1095" unicode="/"/><glyph d="M80 713q0 344 216 538.5t615 194.5q182 0 330 -41t261.5 -126t176 -227.5t62.5 -334.5q0 -348 -214 -537.5t-628 -189.5q-403 0 -611 200.5t-208 522.5zM451 713q0 -240 124.5 -337t335.5 -97q461 0 461 438q0 442 -460.5 442t-460.5 -446z" glyph-name="zero" horiz-adv-x="1820" unicode="0"/><glyph d="M596 1440h365v-1133h469v-307h-1338v307h510l2 516h-510l-4 305q68 0 103.5 1t98 6.5t97.5 16.5t80 33.5t68.5 55.5t41 83t17.5 116z" glyph-name="one" horiz-adv-x="1519" unicode="1"/><glyph d="M80 160q0 133 68.5 232.5t179 153.5t244 94t265.5 66.5t242.5 56.5t179 78t68.5 117q0 98 -86 151.5t-315 53.5q-238 0 -330 -76.5t-92 -220.5h-373q0 582 784 582q397 0 577.5 -137t180.5 -365q0 -115 -55 -197.5t-147.5 -130t-204 -78t-231.5 -51t-224 -41t-188 -56.5 t-117 -87h1161v-305h-1587v160z" glyph-name="two" horiz-adv-x="1773" unicode="2"/><glyph d="M1702 430q0 -440 -801 -440q-125 0 -225.5 9t-217 43t-194.5 90t-131 160.5t-53 246.5h383q0 -160 108.5 -218.5t346.5 -58.5q225 0 314 36t89 144q0 100 -112.5 128t-483.5 28v240q369 0 482.5 26.5t113.5 130.5q0 96 -96.5 137.5t-306.5 41.5q-260 0 -357.5 -52.5 t-97.5 -218.5h-383q0 262 189.5 402.5t621.5 140.5q809 0 809 -436q0 -209 -203 -289q98 -35 151.5 -112t53.5 -179z" glyph-name="three" horiz-adv-x="1781" unicode="3"/><glyph d="M1501 0h-360v219h-1051v342l1067 877h344v-914h275v-305h-275v-219zM1141 524v510l-606 -510h606z" glyph-name="four" horiz-adv-x="1865" unicode="4"/><glyph d="M1528 1143h-957l-69 -295q150 135 499 135q129 0 244 -24.5t218.5 -78t165 -153.5t61.5 -238q0 -125 -54.5 -218t-135.5 -145t-196.5 -84t-216 -42t-215.5 -10q-793 0 -792 475h381q0 -106 109.5 -147.5t347.5 -41.5q229 0 322 49.5t93 155.5q0 217 -405 217 q-305 0 -436 -110l-367 69l145 779h1264z" glyph-name="five" horiz-adv-x="1769" unicode="5"/><glyph d="M1282 1008q-12 147 -403 147q-207 0 -310.5 -73.5t-122.5 -278.5q61 76 200.5 124t324.5 48q770 0 770 -490q0 -102 -40 -186t-126 -155.5t-242.5 -112.5t-371.5 -41q-463 0 -667 163.5t-204 546.5q0 207 59.5 356.5t168 235.5t246.5 126t310 40q381 0 565.5 -107.5 t198.5 -342.5h-356zM920 264q242 0 354 56.5t112 181.5q0 238 -466 237q-221 0 -343 -61.5t-122 -175.5q0 -238 465 -238z" glyph-name="six" horiz-adv-x="1830" unicode="6"/><glyph d="M49 1436h1557v-301q-127 -59 -258 -163t-254 -246t-203 -333.5t-84 -392.5h-379q4 326 173 634t450 501h-1002v301z" glyph-name="seven" horiz-adv-x="1654" unicode="7"/><glyph d="M1780 436q0 -248 -208 -347t-642 -99q-436 0 -644 99t-208 347q0 274 311 387q-154 94 -153 252q0 209 172 290t522 81q348 0 521 -81t173 -290q0 -154 -156 -252q312 -113 312 -387zM467 463q0 -125 107.5 -172t355.5 -47t354.5 47t106.5 172q0 123 -106.5 170 t-354.5 47q-250 0 -356.5 -47t-106.5 -170zM590 1044q0 -86 76.5 -115.5t263.5 -29.5q184 0 261 29.5t77 115.5t-78 117t-260 31q-184 0 -262 -31t-78 -117z" glyph-name="eight" horiz-adv-x="1857" unicode="8"/><glyph d="M926 -10q-383 0 -576.5 108.5t-208.5 341.5h357q12 -147 424 -147q221 0 327.5 73.5t124.5 278.5q-61 -76 -200.5 -124t-323.5 -48q-770 0 -770 490q0 102 40 186t126 155.5t242.5 112.5t371.5 41q463 0 667 -164t204 -546q0 -758 -805 -758zM901 709q221 0 343 61 t122 176q0 238 -465 238q-242 0 -354.5 -56.5t-112.5 -181.5q0 -237 467 -237z" glyph-name="nine" horiz-adv-x="1806" unicode="9"/><glyph d="M125 160q0 94 51 128t141.5 34t140.5 -33t50 -129q0 -94 -50 -127t-140.5 -33t-141.5 33t-51 127zM317.5 723q-90.5 0 -141.5 32.5t-51 125.5q0 94 51 127.5t141.5 33.5t140.5 -32.5t50 -128.5q0 -92 -50 -125t-140.5 -33z" glyph-name="colon" horiz-adv-x="634" unicode=":"/><glyph d="M123 162q0 94 50 127t140 33t141.5 -33t51.5 -125v-4q0 -309 -250 -310v87q70 0 76 63h-19q-90 0 -140 33t-50 129zM313 715q-90 0 -140 32.5t-50 129.5q0 92 50 124.5t140 32.5t141.5 -32.5t51.5 -124.5q0 -94 -51.5 -128t-141.5 -34z" glyph-name="semicolon" horiz-adv-x="630" unicode=";"/><glyph d="M1565 440v-321l-1454 276v512l1454 277v-324l-1155 -205v-10z" glyph-name="less" horiz-adv-x="1675" unicode="&lt;"/><glyph d="M1890 465v-332h-1740v332h1740zM1890 827h-1740v330h1740v-330z" glyph-name="equal" horiz-adv-x="2039" unicode="="/><glyph d="M1565 907v-512l-1454 -276v321l1157 205v10l-1157 205v324z" glyph-name="greater" horiz-adv-x="1675" unicode=">"/><glyph d="M444 915h-354q0 266 187.5 407.5t535.5 141.5q336 0 527.5 -129t191.5 -397q0 -131 -47 -227.5t-155.5 -169t-298 -108.5t-464.5 -36v283q242 0 374 29.5t176 83t44 147.5q0 121 -82 174t-254 53q-193 0 -287 -58.5t-94 -193.5zM753.5 0q-96.5 0 -151.5 29.5t-55 111.5 q0 84 55 114t151.5 30t150.5 -30t54 -114q0 -82 -54 -111.5t-150.5 -29.5z" glyph-name="question" horiz-adv-x="1619" unicode="?"/><glyph d="M2513 707q0 -291 -123 -435.5t-432 -144.5h-297v111q-98 -70 -216 -98.5t-294 -28.5q-518 0 -518 292q0 307 577 308h439q-29 96 -116 123.5t-241 27.5q-158 0 -234.5 -22.5t-76.5 -91.5h-283q0 342 598 342q135 0 247 -20.5t209 -68t151.5 -135.5t54.5 -209v-254 q115 4 177.5 69t62.5 235q0 274 -217.5 402t-669.5 128q-465 0 -685 -144.5t-220 -488.5q0 -342 199.5 -493.5t641.5 -153.5h783v-270h-783q-580 0 -868.5 220t-288.5 697q0 465 302 689.5t919 224.5q586 0 894 -209t308 -602zM928 420q0 -115 293 -115q301 0 440 125l-2 92 h-412q-166 0 -242.5 -21.5t-76.5 -80.5z" glyph-name="at" horiz-adv-x="2603" unicode="@"/><glyph d="M643 291l-149 -291h-410l745 1436h510l748 -1436h-412l-149 291h-883zM1100 1116h-31l-266 -516h563z" glyph-name="A" horiz-adv-x="2166" unicode="A"/><glyph d="M1819 410q0 -201 -111 -305.5t-369 -104.5h-1249v1436h1147q254 0 363.5 -98.5t109.5 -274.5q0 -205 -151 -283q131 -37 195.5 -125.5t64.5 -244.5zM442 586v-289h873q176 0 176 143q0 145 -176 146h-873zM1192 1139h-750v-279h752q174 0 174 139.5t-176 139.5z" glyph-name="B" horiz-adv-x="1898" unicode="B"/><glyph d="M985 -23q-446 0 -675.5 196t-229.5 544q0 362 227.5 551.5t677.5 189.5q453 0 681 -168t247 -467h-371q-20 131 -151 226.5t-385 95.5q-291 0 -429.5 -106.5t-138.5 -321.5q0 -424 568 -424q256 0 387 88t149 217h373q-20 -283 -250.5 -452t-679.5 -169z" glyph-name="C" horiz-adv-x="1992" unicode="C"/><glyph d="M1096 0h-1006v1436h1004q160 0 291 -36t240.5 -115t171 -223t61.5 -343q0 -188 -64.5 -330.5t-175.5 -225.5t-243 -123t-279 -40zM1008 1137h-557v-838h557q489 0 489 418q0 219 -119.5 319.5t-369.5 100.5z" glyph-name="D" horiz-adv-x="1937" unicode="D"/><glyph d="M98 0v1436h1540v-301h-1189v-269h1093v-295h-1093v-268h1189v-303h-1540z" glyph-name="E" horiz-adv-x="1736" unicode="E"/><glyph d="M90 0v1438h1518v-322h-1168v-332h1022v-313h-1022v-471h-350z" glyph-name="F" horiz-adv-x="1697" unicode="F"/><glyph d="M993 801h922v-801h-311v170q-233 -193 -613 -193q-451 0 -681 195t-230 545q0 362 228.5 551.5t682.5 189.5q903 0 924 -563h-377q-4 37 -13 64.5t-43 64.5t-89.5 61.5t-159 42t-242.5 17.5q-553 0 -553 -428q0 -59 11.5 -111.5t47 -112t94 -102.5t161 -70.5t239.5 -27.5 q233 0 362.5 75.5t157.5 161.5h-518v271z" glyph-name="G" horiz-adv-x="1992" unicode="G"/><glyph d="M90 0v1436h350v-555h1114v555h353v-1436h-353v557h-1114v-557h-350z" glyph-name="H" horiz-adv-x="1996" unicode="H"/><glyph d="M449 0h-351v1436h351v-1436z" glyph-name="I" horiz-adv-x="546" unicode="I"/><glyph d="M123 -10v301h459q133 0 219 27.5t128 82t56 112.5t14 144v449h-720v330h1071v-779q0 -356 -181.5 -511.5t-586.5 -155.5h-459z" glyph-name="J" horiz-adv-x="1439" unicode="J"/><glyph d="M440 0h-350v1436h350v-791l1018 791h508l-823 -643l864 -793h-494l-626 592l-447 -348v-244z" glyph-name="K" horiz-adv-x="2086" unicode="K"/><glyph d="M90 0v1436h350v-1106h1147v-330h-1497z" glyph-name="L" horiz-adv-x="1667" unicode="L"/><glyph d="M1757 1436h465v-1436h-350v930l-569 -930h-299l-564 930v-930h-350v1436h463l602 -990z" glyph-name="M" horiz-adv-x="2312" unicode="M"/><glyph d="M440 0h-350v1436h490l999 -1037v1037h350v-1436h-481l-1008 1047v-1047z" glyph-name="N" horiz-adv-x="2019" unicode="N"/><glyph d="M80 725q0 362 228.5 547.5t707.5 185.5q471 0 706.5 -186.5t235.5 -546.5q0 -358 -237.5 -553t-704.5 -195q-936 0 -936 748zM457 725q0 -233 140 -342t419 -109q283 0 424 109t141 342q0 227 -141.5 332.5t-423.5 105.5q-279 0 -419 -105.5t-140 -332.5z" glyph-name="O" unicode="O"/><glyph d="M440 0h-350v1436h1071q96 0 188.5 -25t184.5 -81t149.5 -167.5t57.5 -265.5q0 -121 -38 -217t-96.5 -155.5t-137 -99.5t-154.5 -55.5t-154 -15.5h-721v-354zM1067 1122h-627v-452h627q61 0 95 2t85 13t79 33.5t49.5 67.5t21.5 111q0 76 -28 125t-82 68.5t-101 25.5 t-119 6z" glyph-name="P" horiz-adv-x="1820" unicode="P"/><glyph d="M844 -246v230q-764 68 -764 741q0 362 228.5 547.5t707.5 185.5q471 0 706.5 -186.5t235.5 -546.5q0 -322 -192.5 -512t-571.5 -227v-232h-350zM1016 1163q-279 0 -414 -104.5t-135 -333.5q0 -236 135 -343.5t414 -107.5q281 0 418 107.5t137 343.5q0 227 -137 332.5 t-418 105.5z" glyph-name="Q" unicode="Q"/><glyph d="M1741 897q0 -332 -271 -471l279 -426h-418l-217 354h-674v-354h-350v1436h1071q96 0 188.5 -25t184.5 -81t149.5 -167.5t57.5 -265.5zM1077 1122h-637v-452h637q57 0 90 2t83 13t77 33.5t48.5 67.5t21.5 111q0 76 -28 125t-81 68.5t-98 25.5t-113 6z" glyph-name="R" horiz-adv-x="1859" unicode="R"/><glyph d="M1047 287q279 0 387 32.5t108 112.5q0 84 -97 109.5t-439 42.5q-483 23 -679 118t-196 332q0 227 216 323.5t642 96.5t648.5 -117.5t222.5 -384.5h-390q0 115 -116.5 155t-405.5 40q-256 0 -347 -27.5t-91 -103.5t92 -102.5t404 -43.5q143 -8 230 -14t196.5 -19.5 t173 -32t131 -49t103.5 -72.5t58.5 -101.5t22.5 -137.5q0 -113 -43 -195.5t-116.5 -134t-190.5 -82t-245 -41.5t-300 -11q-233 0 -396 22.5t-290 79.5t-188.5 162.5t-61.5 261.5h389q0 -119 120 -169t448 -50z" glyph-name="S" horiz-adv-x="2000" unicode="S"/><glyph d="M809 1106h-739v330h1828v-330h-739v-1106h-350v1106z" glyph-name="T" horiz-adv-x="1978" unicode="T"/><glyph d="M1001 -23q-469 0 -690 187.5t-221 562.5v709h365v-709q0 -446 546 -446q553 0 553 446v709h365v-709q0 -750 -918 -750z" glyph-name="U" horiz-adv-x="2009" unicode="U"/><glyph d="M1313 0h-457l-776 1436h405l598 -1133l598 1133h406z" glyph-name="V" horiz-adv-x="2166" unicode="V"/><glyph d="M2175 428l430 1008h375l-619 -1436h-368l-461 1004l-461 -1004h-369l-622 1436h375l432 -1014l450 1014h385z" glyph-name="W" horiz-adv-x="3059" unicode="W"/><glyph d="M1118 489l-543 -489h-495l778 719l-776 717h496l542 -492l543 492h496l-779 -719l774 -717h-495z" glyph-name="X" horiz-adv-x="2238" unicode="X"/><glyph d="M862 0v446l-782 990h430l534 -672l533 672h430l-784 -990v-446h-361z" glyph-name="Y" horiz-adv-x="2086" unicode="Y"/><glyph d="M74 0v332l1114 803h-1114v301h1624v-334l-1106 -801h1106v-301h-1624z" glyph-name="Z" horiz-adv-x="1787" unicode="Z"/><glyph d="M82 -410v2048h911v-327h-542v-1393h542v-328h-911z" glyph-name="bracketleft" horiz-adv-x="1075" unicode="["/><glyph d="M1044 -307h-372l-584 1782h375z" glyph-name="backslash" horiz-adv-x="1073" unicode="\"/><glyph d="M625 -82v1393h-543v327h911v-2048h-911v328h543z" glyph-name="bracketright" horiz-adv-x="1075" unicode="]"/><glyph d="M373 989h-240l354 570h304l352 -570h-238l-266 420z" glyph-name="asciicircum" horiz-adv-x="1275" unicode="^"/><glyph d="M2056 0h-1945v332h1945v-332z" glyph-name="underscore" horiz-adv-x="2166" unicode="_"/><glyph d="M520 1516l-491 342h587l238 -342h-334z" glyph-name="grave" horiz-adv-x="1177" unicode="`"/><glyph d="M1741 0h-377v135q-123 -88 -272.5 -123t-372.5 -35q-651 0 -651 371q0 387 727 387h559q-14 63 -56.5 103.5t-112 58.5t-132 23.5t-152.5 5.5q-96 0 -159.5 -5.5t-122 -19.5t-86 -44t-27.5 -77h-359q0 432 758 432q135 0 251 -15t225.5 -54t186.5 -99.5t124 -156.5 t47 -219zM1364 381v117h-522q-209 0 -306.5 -28t-97.5 -103q0 -141 371 -142q381 0 555 156z" glyph-name="a" horiz-adv-x="1830" unicode="a"/><glyph d="M1065 1210q346 0 552 -153.5t206 -454.5q0 -625 -758 -625q-412 0 -616 199l2 -176h-361v1638h361v-639q206 211 614 211zM451 594q0 -178 130 -257t400 -79q209 0 337 81t128 257t-129 258t-336 82q-270 0 -400 -82t-130 -260z" glyph-name="b" horiz-adv-x="1902" unicode="b"/><glyph d="M930 -23q-414 0 -632 161t-218 454q0 301 217 459.5t633 158.5q393 0 601 -133t234 -372h-364q-57 211 -471 210q-485 0 -486 -321q0 -326 486 -326q416 0 473 209h362q-27 -240 -233.5 -370t-601.5 -130z" glyph-name="c" horiz-adv-x="1845" unicode="c"/><glyph d="M1450 1638h362v-1638h-362l2 176q-205 -199 -616 -199q-756 0 -756 625q0 301 206 454.5t550 153.5q408 0 614 -211v639zM920 936q-205 0 -334 -83t-129 -257q0 -176 128 -257t335 -81q272 0 401 79t129 257q0 180 -131 261t-399 81z" glyph-name="d" horiz-adv-x="1902" unicode="d"/><glyph d="M913 -23q-100 0 -199.5 13.5t-218 54.5t-206.5 105.5t-148.5 179t-60.5 262.5q0 305 221 461.5t623 156.5q195 0 342 -34.5t266 -112.5t178 -220.5t51 -344.5h-1296q29 -133 150.5 -188.5t328.5 -55.5q360 0 436 164h361q-35 -211 -255.5 -326t-572.5 -115zM924 926 q-430 0 -469 -221h931q-46 221 -462 221z" glyph-name="e" horiz-adv-x="1841" unicode="e"/><glyph d="M823 1638h465v-284h-295q-180 0 -225 -24.5t-47 -141.5h567v-266h-573v-922h-363v922h-272v266h276q4 262 106.5 356t360.5 94z" glyph-name="f" horiz-adv-x="1368" unicode="f"/><glyph d="M84 602q0 608 856 608q168 0 315 -41q43 117 140.5 167t263.5 50h151v-290q-98 0 -144 -12.5t-67 -49.5q195 -150 195 -432q0 -598 -862 -598q-117 0 -241 10.5t-136 10.5q-53 0 -53 -33q0 -49 77.5 -65.5t333.5 -24.5q438 -8 630 -93t192 -309h-402q0 49 -26.5 77 t-126 48.5t-291.5 24.5q-408 6 -577 84t-169 266q0 135 82 215q-141 145 -141 387zM940 932q-240 0 -362.5 -76t-122.5 -260q0 -178 122.5 -250t362.5 -72t362.5 72t122.5 250q0 184 -122.5 260t-362.5 76z" glyph-name="g" horiz-adv-x="1892" unicode="g"/><glyph d="M90 0v1638h361v-659q266 233 669 233q641 0 647 -604l-4 -608h-360v571q0 182 -101.5 273.5t-281.5 91.5q-188 0 -357 -88t-212 -230v-618h-361z" glyph-name="h" horiz-adv-x="1857" unicode="h"/><glyph d="M92 0v1188h363v-1188h-363zM68 1433.5q0 100.5 53 131t153 30.5q49 0 80 -5t63 -19.5t47 -49t15 -87.5q0 -100 -52 -130t-152.5 -30t-153.5 29.5t-53 130z" glyph-name="i" horiz-adv-x="546" unicode="i"/><glyph d="M49 -514v293h213q100 0 146.5 6t80 37t42 83t8.5 156v1125h360v-1133q0 -328 -93 -447.5t-374 -119.5h-383zM512 1433.5q0 100.5 53 131t156 30.5q49 0 79.5 -5t62.5 -19.5t47.5 -49t15.5 -87.5q0 -100 -52.5 -130t-152.5 -30q-102 0 -155.5 29.5t-53.5 130z" glyph-name="j" horiz-adv-x="989" unicode="j"/><glyph d="M451 252v-252h-361v1638h361v-979l780 529h563l-768 -535l778 -653h-514l-540 459z" glyph-name="k" horiz-adv-x="1871" unicode="k"/><glyph d="M455 0h-363v1638h363v-1638z" glyph-name="l" horiz-adv-x="546" unicode="l"/><glyph d="M451 649v-649h-361v1188h361v-166q236 188 598 188q356 0 471 -215q252 215 622 215q287 0 418 -139t133 -453l-2 -618h-362v571q0 197 -56.5 281t-210.5 84q-143 0 -278 -58.5t-199 -154.5q4 -66 4 -105l-2 -618h-362v571q0 197 -56.5 281t-210.5 84q-170 0 -321 -80 t-186 -207z" glyph-name="m" horiz-adv-x="2785" unicode="m"/><glyph d="M90 0v1188h361v-193q248 215 669 215q307 0 466 -141t161 -451l-4 -618h-361v571q0 365 -362 365q-188 0 -357 -88t-212 -230v-618h-361z" glyph-name="n" horiz-adv-x="1835" unicode="n"/><glyph d="M84 592q0 618 848 618q862 0 862 -618q0 -164 -64.5 -284t-183.5 -191.5t-271.5 -105.5t-342.5 -34q-393 0 -620.5 149t-227.5 466zM455 598q0 -342 485 -342t485 342q0 184 -122.5 260t-362.5 76t-362.5 -76t-122.5 -260z" glyph-name="o" horiz-adv-x="1873" unicode="o"/><glyph d="M1065 1210q758 0 758 -626q0 -301 -206 -454t-552 -153q-408 0 -614 207v-639h-361v1643h361v-178q211 200 614 200zM981 928q-272 0 -401 -80t-129 -258q0 -180 130 -260t400 -80q207 0 336 82t129 258q0 174 -129 256t-336 82z" glyph-name="p" horiz-adv-x="1894" unicode="p"/><glyph d="M1450 1188h362v-1643h-362v639q-207 -207 -614 -207q-344 0 -550 153t-206 454q0 627 756 626q403 0 614 -200v178zM920 928q-207 0 -335 -82t-128 -256q0 -176 128 -258t335 -82q270 0 400 80t130 260q0 178 -129 258t-401 80z" glyph-name="q" horiz-adv-x="1896" unicode="q"/><glyph d="M451 0h-361v1188h361v-168q211 190 518 190q522 0 522 -417h-361q0 143 -262 143q-305 0 -417 -277v-659z" glyph-name="r" horiz-adv-x="1570" unicode="r"/><glyph d="M1710 375q0 -225 -190.5 -311.5t-573.5 -86.5q-154 0 -270.5 9.5t-238.5 37t-199.5 74.5t-127 130t-49.5 196h365q0 -98 109.5 -137t390.5 -39q182 0 271 10t120 32.5t31 67.5q0 66 -75 84.5t-386 36.5q-150 8 -244 17.5t-193.5 25t-155.5 40t-104.5 61t-68 90 t-19.5 125.5q0 106 59.5 181t171 116t248 58t316.5 17q147 0 255 -8t211 -33.5t166.5 -68.5t102.5 -115t39 -172h-364q0 76 -93.5 100.5t-336.5 24.5q-238 0 -324 -18.5t-86 -67.5q0 -29 14.5 -45t68.5 -29.5t136 -21.5t242 -21q385 -27 504 -55q221 -53 266 -205 q12 -45 12 -100z" glyph-name="s" horiz-adv-x="1771" unicode="s"/><glyph d="M743 1190h603v-268h-603v-340q0 -188 40 -241.5t198 -53.5h365v-297h-506q-135 0 -215 17.5t-138.5 71.5t-81 149.5t-22.5 252.5v441h-303v268h303v244h360v-244z" glyph-name="t" horiz-adv-x="1497" unicode="t"/><glyph d="M715 -23q-307 0 -465 142.5t-160 449.5l2 619h363v-572q0 -362 362 -362q188 0 357 87t210 230v617h363v-1188h-363v193q-251 -216 -669 -216z" glyph-name="u" horiz-adv-x="1835" unicode="u"/><glyph d="M1225 0h-484l-649 1188h408l483 -887l483 887h408z" glyph-name="v" horiz-adv-x="1970" unicode="v"/><glyph d="M2009 330l377 858h385l-543 -1188h-416l-387 809l-387 -809h-415l-543 1188h385l377 -858l405 858h357z" glyph-name="w" horiz-adv-x="2852" unicode="w"/><glyph d="M80 0l641 594l-641 594h473l426 -379l428 379h469l-637 -594l637 -594h-469l-428 379l-426 -379h-473z" glyph-name="x" horiz-adv-x="1955" unicode="x"/><glyph d="M764 0l-688 1188h418l505 -871l459 871h420l-700 -1307q-133 -248 -257 -321.5t-399 -73.5h-205v293h86q225 0 314.5 40t159.5 181h-113z" glyph-name="y" horiz-adv-x="1953" unicode="y"/><glyph d="M92 0l-2 295l895 600h-895v293h1483v-293l-895 -600h895v-295h-1481z" glyph-name="z" horiz-adv-x="1662" unicode="z"/><glyph d="M82 371v491q59 0 88 1t71 11.5t62.5 32t35.5 61.5t15 99q0 176 28 280.5t105.5 173t203.5 93t333 24.5v-327q-109 0 -169 -10.5t-113.5 -48.5t-74 -114.5t-20.5 -203.5q0 -246 -231 -307v-19q231 -61 231 -309q0 -129 20.5 -207t74 -115.5t113.5 -48t169 -10.5v-328 q-217 0 -345 25t-203 95.5t-98.5 173t-23.5 282.5q0 59 -15 99t-35.5 61.5t-62.5 32t-71 11.5t-88 1z" glyph-name="braceleft" horiz-adv-x="1105" unicode="{"/><glyph d="M475 -307h-356v1743h356v-1743z" glyph-name="bar" horiz-adv-x="593" unicode="|"/><glyph d="M459 934q0 127 -20.5 203.5t-74 114.5t-114 48.5t-168.5 10.5v327q207 0 333 -24.5t203.5 -93t105.5 -173t28 -280.5q0 -59 15 -99t35.5 -61.5t62.5 -32t71 -11.5t88 -1v-491q-59 0 -88 -1t-71 -11.5t-62.5 -32t-35.5 -61.5t-15 -99q0 -180 -23.5 -282.5t-98.5 -173 t-203 -95.5t-345 -25v328q109 0 169 10.5t113.5 48t74 115.5t20.5 207q0 248 231 309v19q-231 61 -231 307z" glyph-name="braceright" horiz-adv-x="1105" unicode="}"/><glyph d="M365 438h-250q-35 442 291 443q84 0 157.5 -31t117.5 -66.5t102.5 -66.5t117.5 -31q82 0 106.5 38t24.5 157h248q35 -442 -289 -443q-84 0 -157.5 30t-117.5 66.5t-102.5 66.5t-117.5 30q-82 0 -106.5 -38t-24.5 -155z" glyph-name="asciitilde" horiz-adv-x="1394" unicode="~"/><glyph glyph-name="uni00A0" horiz-adv-x="1191" unicode=" "/><glyph d="M440 1018l31 -1018h-412l31 1018h350zM264 1149q-98 0 -152.5 29.5t-54.5 111.5q0 84 54.5 114t152.5 30q96 0 151.5 -30t55.5 -114q0 -82 -55.5 -111.5t-151.5 -29.5z" glyph-name="exclamdown" horiz-adv-x="530" unicode="¡"/><glyph d="M1409 600h377q-25 -236 -210 -359.5t-489 -144.5v-301h-245v301q-342 20 -530.5 172t-188.5 449t188.5 448.5t530.5 173.5v299h245v-301q303 -20 488.5 -144t210.5 -357h-377q-20 111 -123.5 152.5t-298.5 41.5q-80 0 -139.5 -4t-131 -22.5t-117.5 -51t-76.5 -92 t-30.5 -143.5q0 -166 114.5 -242t360.5 -76q205 0 313.5 43t128.5 158z" glyph-name="cent" horiz-adv-x="1908" unicode="¢"/><glyph d="M387 621h-276v217h284q31 317 208 457.5t581 140.5h452v-301h-452q-227 0 -319.5 -68t-112.5 -229h538v-217h-547v-291h893v-330h-1525v330h276v291z" glyph-name="sterling" horiz-adv-x="1744" unicode="£"/><glyph d="M152 707q0 299 204 448l-143 143l162 164l200 -200q166 49 383 49q223 0 400 -54l205 205l161 -164l-151 -151q193 -154 192 -440q0 -291 -194 -441l153 -153l-161 -164l-207 207q-168 -51 -398 -52q-223 0 -378 48l-205 -203l-162 164l145 145q-206 150 -206 449z M520 707q0 -170 111.5 -234.5t326.5 -64.5q219 0 329 66.5t110 232t-110.5 232.5t-328.5 67q-219 0 -328.5 -66.5t-109.5 -232.5z" glyph-name="currency" horiz-adv-x="1916" unicode="¤"/><glyph d="M1413 686h307v-219h-481l-16 -21v-94h497v-217h-497v-135h-361v135h-495v217h495v94l-16 21h-479v219h305l-592 750h430l534 -672l533 672h430z" glyph-name="yen" horiz-adv-x="2086" unicode="¥"/><glyph d="M475 694h-356v742h356v-742zM475 434v-741h-356v741h356z" glyph-name="brokenbar" horiz-adv-x="593" unicode="¦"/><glyph d="M72 471q0 242 219 342q-104 47 -151.5 123t-47.5 192q0 242 204 335t605 93q197 0 344.5 -21.5t268 -72.5t184 -144t63.5 -228h-362q0 113 -108.5 153.5t-399.5 40.5q-266 0 -355.5 -30.5t-89.5 -120.5q0 -98 87.5 -127t394.5 -48q123 -6 198.5 -12t169 -16t149.5 -24.5 t118.5 -38t96.5 -54.5t65.5 -74t44 -99t12.5 -128q0 -240 -217 -342q104 -47 150 -123t46 -192q0 -125 -55 -211t-165.5 -132.5t-251 -65.5t-337 -19t-344 21.5t-268.5 72.5t-184.5 144t-63.5 229h365q0 -113 108.5 -154t397.5 -41q266 0 356 30.5t90 120.5q0 98 -88 128 t-393 49q-123 6 -199 11t-169 16.5t-149.5 25.5t-119 36.5t-97 53.5t-66.5 74t-44 99t-12 128zM436 483q0 -43 10.5 -70.5t35 -47t61.5 -30.5t95 -17.5t131 -8.5t173 -4h16q248 0 353.5 38t105.5 156.5t-93 146.5t-417 32h-12q-123 0 -198.5 -6t-140 -26.5t-92.5 -60 t-28 -102.5z" glyph-name="section" horiz-adv-x="1853" unicode="§"/><glyph d="M608 1677q0 94 50.5 127t140.5 33t141 -32.5t51 -127t-51 -128t-141 -33.5t-140.5 32.5t-50.5 128.5zM84 1677q0 94 50 127t140.5 33t141.5 -32.5t51 -127t-51 -128t-141.5 -33.5t-140.5 32.5t-50 128.5z" glyph-name="dieresis" horiz-adv-x="1073" unicode="¨"/><glyph d="M111 731q0 389 252.5 609.5t746.5 220.5q483 0 744.5 -222.5t261.5 -607.5q0 -393 -261.5 -620.5t-744.5 -227.5q-492 0 -745.5 226.5t-253.5 621.5zM1108 1366q-371 0 -580 -165t-209 -478q0 -311 210 -477t579 -166q377 0 589 166t210 477q0 315 -210 479t-589 164z M1116 270q-596 0 -596 453t596 453q571 0 592 -388h-303q-14 137 -289 138q-90 0 -149.5 -13.5t-104.5 -60.5t-45 -129q0 -119 80 -162t219 -43q274 0 289 139h303q-21 -387 -592 -387z" glyph-name="copyright" horiz-adv-x="2226" unicode="©"/><glyph d="M1145 594l532 -594h-430l-487 543v104l487 541h430zM1020 0h-430l-486 543v104l486 541h430l-533 -594z" glyph-name="guillemotleft" horiz-adv-x="1759" unicode="«"/><glyph d="M1333 561h-1190v330h1559v-713h-369v383z" glyph-name="logicalnot" horiz-adv-x="1841" unicode="¬"/><glyph d="M111 1040.5q0 268.5 169 392t519 123.5t519 -123.5t169 -392t-169 -392.5t-519 -124t-519 124t-169 392.5zM274 1040q0 -213 127 -292.5t397.5 -79.5t397.5 79.5t127 292.5t-127 293t-397.5 80t-397.5 -80t-127 -293zM655 774h-139v533h404q96 0 158.5 -53.5t62.5 -141.5 q0 -129 -115 -178l96 -160h-161l-87 141h-219v-141zM883 1192h-228v-160h228q119 0 119 80t-119 80z" glyph-name="registered" horiz-adv-x="1595" unicode="®"/><glyph d="M125 1516l-2 268h1022v-268h-1020z" glyph-name="macron" horiz-adv-x="1267" unicode="¯"/><glyph d="M111 1282q0 195 118.5 314.5t364.5 119.5q244 0 363.5 -120.5t119.5 -313.5q0 -195 -118.5 -315.5t-364.5 -120.5t-364.5 120.5t-118.5 315.5zM360 1282q0 -100 61.5 -158.5t172.5 -58.5t172 58.5t61 158.5t-61 157.5t-172 57.5t-172.5 -57.5t-61.5 -157.5z" glyph-name="degree" horiz-adv-x="1185" unicode="°"/><glyph d="M1047 1024h450v-330h-450v-383h552v-260h-1456v260h553v383h-450v330h450v389h351v-389z" glyph-name="plusminus" horiz-adv-x="1740" unicode="±"/><glyph d="M678 1516h-334l238 342h587z" glyph-name="acute" horiz-adv-x="1177" unicode="´"/><glyph d="M684 696h-27q-104 0 -169.5 4.5t-148.5 24.5t-131 58t-82 110t-34 174q0 211 138.5 290t426.5 81h347v-1747h-320v1005zM1540 -309h-317v1747h317v-1747z" glyph-name="paragraph" horiz-adv-x="1650" unicode="¶"/><glyph d="M123 645q0 94 50 127t140 33t141.5 -33t51.5 -127t-51.5 -128t-141.5 -34t-140 33t-50 129z" glyph-name="periodcentered" horiz-adv-x="589" unicode="·"/><glyph d="M123 -481v176h166q121 0 168 10t47 45q0 41 -39 50.5t-174 9.5h-101l60 190h223l-43 -96h8q55 0 89 -1t86.5 -11.5t82 -29t52 -56t22.5 -91t-23.5 -91.5t-60.5 -58.5t-106.5 -30.5t-134 -13t-171.5 -3h-151z" glyph-name="cedilla" horiz-adv-x="892" unicode="¸"/><glyph d="M553 0h-430l532 594l-532 594h430l487 -541v-104zM1696 647v-104l-486 -543h-430l533 594l-533 594h430z" glyph-name="guillemotright" horiz-adv-x="1800" unicode="»"/><glyph d="M90 500q0 131 47 226t155.5 168t298 108.5t462.5 35.5v-280q-242 0 -373 -30t-175 -83t-44 -147q0 -121 82 -175.5t252 -54.5q193 0 287 58.5t94 193.5h356q0 -266 -187.5 -407.5t-535.5 -141.5q-336 0 -527.5 130.5t-191.5 398.5zM662 1296q0 82 54 111t150 29 q98 0 153.5 -29t55.5 -111q0 -86 -55 -115.5t-154 -29.5q-96 0 -150 29.5t-54 115.5z" glyph-name="questiondown" horiz-adv-x="1619" unicode="¿"/><glyph d="M2087 0h-412l-149 291h-883l-149 -291h-410l745 1436h510zM1237 1516h-334l-491 342h587zM1100 1116h-31l-266 -516h563z" glyph-name="Agrave" horiz-adv-x="2166" unicode="À"/><glyph d="M2087 0h-412l-149 291h-883l-149 -291h-410l745 1436h510zM1743 1858l-492 -342h-333l237 342h588zM1100 1116h-31l-266 -516h563z" glyph-name="Aacute" horiz-adv-x="2166" unicode="Á"/><glyph d="M643 291l-149 -291h-410l745 1436h510l748 -1436h-412l-149 291h-883zM1063 1702l-166 -186h-317l321 342h369l321 -342h-317l-166 186h-45zM1069 1116l-266 -516h563l-266 516h-31z" glyph-name="Acircumflex" horiz-adv-x="2166" unicode="Â"/><glyph d="M643 291l-149 -291h-410l745 1436h510l748 -1436h-412l-149 291h-883zM799 1536h-307q0 211 60 315.5t247 104.5q84 0 153.5 -29t107.5 -63.5t88 -63t101 -28.5q123 0 123 174h307q0 -211 -60 -315.5t-247 -104.5q-84 0 -153.5 28.5t-106.5 63.5t-87 63.5t-103 28.5 q-123 0 -123 -174zM1069 1116l-266 -516h563l-266 516h-31z" glyph-name="Atilde" horiz-adv-x="2166" unicode="Ã"/><glyph d="M643 291l-149 -291h-410l745 1436h510l748 -1436h-412l-149 291h-883zM1100 1116h-31l-266 -516h563zM1157 1677q0 94 50 127t140.5 33t141.5 -32.5t51 -127t-51 -128t-141.5 -33.5t-140.5 32.5t-50 128.5zM823 1516q-90 0 -140 32.5t-50 128.5q0 94 50 127t140 33 t141.5 -32.5t51.5 -127t-51.5 -128t-141.5 -33.5z" glyph-name="Adieresis" horiz-adv-x="2166" unicode="Ä"/><glyph d="M643 291l-149 -291h-410l745 1436h510l748 -1436h-412l-149 291h-883zM655 1817q0 125 101.5 202.5t329 77.5t329 -77.5t101.5 -202.5t-101.5 -203t-329 -78t-329 78t-101.5 203zM1100 1116h-31l-266 -516h563zM909 1816.5q0 -100.5 176.5 -100.5t176.5 100.5 t-176.5 100.5t-176.5 -100.5z" glyph-name="Aring" horiz-adv-x="2166" unicode="Å"/><glyph d="M498 0h-414l711 1436h2087v-301h-1180v-269h1083v-295h-1083v-268h1180v-303h-1543v291h-694zM1339 1137h-286l-267 -537h553v537z" glyph-name="AE" horiz-adv-x="2979" unicode="Æ"/><glyph d="M834 -190l53 170q-399 23 -603 215t-204 522q0 362 227.5 551.5t677.5 189.5q453 0 681 -168t247 -467h-371q-20 131 -151 226.5t-385 95.5q-291 0 -429.5 -106.5t-138.5 -321.5q0 -424 568 -424q256 0 387 88t149 217h373q-18 -262 -219 -427t-588 -189l-35 -78h8 q55 0 89 -1t86.5 -11.5t82 -29t52 -56t22.5 -91t-23.5 -91.5t-60.5 -58.5t-106.5 -30.5t-134 -13t-170.5 -3h-152v176h166q121 0 168 10t47 45q0 41 -39 50.5t-174 9.5h-100z" glyph-name="Ccedilla" horiz-adv-x="1992" unicode="Ç"/><glyph d="M449 303h1189v-303h-1540v1436h1540v-301h-1189v-269h1093v-295h-1093v-268zM1057 1516h-334l-492 342h588z" glyph-name="Egrave" horiz-adv-x="1736" unicode="È"/><glyph d="M98 1436h1540v-301h-1189v-269h1093v-295h-1093v-268h1189v-303h-1540v1436zM1503 1858l-491 -342h-334l237 342h588z" glyph-name="Eacute" horiz-adv-x="1736" unicode="É"/><glyph d="M98 0v1436h1540v-301h-1189v-269h1093v-295h-1093v-268h1189v-303h-1540zM680 1516h-318l322 342h369l321 -342h-317l-166 186h-45z" glyph-name="Ecircumflex" horiz-adv-x="1736" unicode="Ê"/><glyph d="M1638 0h-1540v1436h1540v-301h-1189v-269h1093v-295h-1093v-268h1189v-303zM1130.5 1516q-90.5 0 -140.5 32.5t-50 128.5q0 94 50 127t140.5 33t141.5 -32.5t51 -127t-51 -128t-141.5 -33.5zM606 1516q-90 0 -140 32.5t-50 128.5q0 94 50 127t140 33t141.5 -32.5 t51.5 -127t-51.5 -128t-141.5 -33.5z" glyph-name="Edieresis" horiz-adv-x="1736" unicode="Ë"/><glyph d="M449 0h-351v1436h351v-1436zM109 1516l-494 342h590l237 -342h-333z" glyph-name="Igrave" horiz-adv-x="546" unicode="Ì"/><glyph d="M98 0v1436h351v-1436h-351zM936 1858l-492 -342h-333l237 342h588z" glyph-name="Iacute" horiz-adv-x="546" unicode="Í"/><glyph d="M449 1436v-1436h-351v1436h351zM252 1702l-166 -186h-317l321 342h369l321 -342h-317l-166 186h-45z" glyph-name="Icircumflex" horiz-adv-x="546" unicode="Î"/><glyph d="M98 0v1436h351v-1436h-351zM6 1516q-90 0 -141 32.5t-51 128.5q0 94 51 127t141 33t141.5 -32.5t51.5 -127t-51.5 -128t-141.5 -33.5zM340 1677q0 94 50 127t140.5 33t141.5 -32.5t51 -127t-51 -128t-141.5 -33.5t-140.5 32.5t-50 128.5z" glyph-name="Idieresis" horiz-adv-x="546" unicode="Ï"/><glyph d="M1167 1436q160 0 291 -36t241.5 -115t172 -223t61.5 -343q0 -188 -64.5 -330.5t-175 -225.5t-242.5 -123t-280 -40h-1007v598h-103v238h103v600h1003zM1083 299q487 0 488 418q0 219 -119 319.5t-369 100.5h-557v-301h445v-238h-445v-299h557z" glyph-name="Eth" horiz-adv-x="2013" unicode="Ð"/><glyph d="M440 1047v-1047h-350v1436h490l999 -1037v1037h350v-1436h-481zM723 1536h-307q0 211 60.5 315.5t246.5 104.5q84 0 154.5 -29t108.5 -63.5t87 -63t101 -28.5q123 0 122 174h308q0 -211 -60.5 -315.5t-247.5 -104.5q-84 0 -153.5 28.5t-106.5 63.5t-87 63.5t-103 28.5 q-123 0 -123 -174z" glyph-name="Ntilde" horiz-adv-x="2019" unicode="Ñ"/><glyph d="M1016 -23q-936 0 -936 748q0 362 228.5 547.5t707.5 185.5q471 0 706.5 -186.5t235.5 -546.5q0 -358 -237.5 -553t-704.5 -195zM1016 1163q-279 0 -419 -105.5t-140 -332.5q0 -233 140 -342t419 -109q283 0 424 109t141 342q0 227 -141 332.5t-424 105.5zM1180 1516h-334 l-492 342h588z" glyph-name="Ograve" unicode="Ò"/><glyph d="M80 725q0 362 228.5 547.5t707.5 185.5q471 0 706.5 -186.5t235.5 -546.5q0 -358 -237.5 -553t-704.5 -195q-936 0 -936 748zM457 725q0 -233 140 -342t419 -109q283 0 424 109t141 342q0 227 -141.5 332.5t-423.5 105.5q-279 0 -419 -105.5t-140 -332.5zM1184 1516h-334 l237 342h588z" glyph-name="Oacute" unicode="Ó"/><glyph d="M80 725q0 362 228.5 547.5t707.5 185.5q471 0 706.5 -186.5t235.5 -546.5q0 -358 -237.5 -553t-704.5 -195q-936 0 -936 748zM1016 1163q-279 0 -419 -105.5t-140 -332.5q0 -233 140 -342t419 -109q283 0 424 109t141 342q0 227 -141 332.5t-424 105.5zM834 1858h368 l322 -342h-318l-166 186h-45l-166 -186h-317z" glyph-name="Ocircumflex" unicode="Ô"/><glyph d="M80 725q0 362 228.5 547.5t707.5 185.5q471 0 706.5 -186.5t235.5 -546.5q0 -358 -237.5 -553t-704.5 -195q-936 0 -936 748zM457 725q0 -233 140 -342t419 -109q283 0 424 109t141 342q0 227 -141.5 332.5t-423.5 105.5q-279 0 -419 -105.5t-140 -332.5zM1305 1946h307 q0 -211 -60.5 -315.5t-246.5 -104.5q-84 0 -154 28.5t-106.5 63.5t-87 63.5t-103.5 28.5q-123 0 -123 -174h-307q0 211 60.5 315.5t246.5 104.5q86 0 155.5 -29t107.5 -63.5t87 -63t101 -28.5q123 0 123 174z" glyph-name="Otilde" unicode="Õ"/><glyph d="M80 725q0 362 228.5 547.5t707.5 185.5q471 0 706.5 -186.5t235.5 -546.5q0 -358 -237.5 -553t-704.5 -195q-936 0 -936 748zM457 725q0 -233 140 -342t419 -109q283 0 424 109t141 342q0 227 -141.5 332.5t-423.5 105.5q-279 0 -419 -105.5t-140 -332.5zM565 1677 q0 94 50.5 127t140.5 33t141 -32.5t51 -127t-51 -128t-141 -33.5t-140.5 32.5t-50.5 128.5zM1473 1677.5q0 -94.5 -51.5 -128t-141.5 -33.5t-140 32.5t-50 128.5q0 94 50 127t140 33t141.5 -32.5t51.5 -127z" glyph-name="Odieresis" unicode="Ö"/><glyph d="M451 131l-248 248l354 352l-354 356l233 234l355 -354l354 354l248 -248l-355 -354l355 -354l-234 -236l-354 354z" glyph-name="multiply" horiz-adv-x="1595" unicode="×"/><glyph d="M113 -174l249 303q-285 186 -284 596q0 362 228.5 547.5t707.5 185.5q233 0 405 -45l160 195h369l-258 -314q266 -186 266 -569q0 -358 -237.5 -553t-704.5 -195q-219 0 -375 39l-158 -190h-368zM455 725q0 -219 127 -330l620 754q-80 14 -188 14q-279 0 -419 -105.5 t-140 -332.5zM1470 1028l-612 -743q78 -10 156 -11q285 0 426 109t139 342q0 199 -109 303z" glyph-name="Oslash" unicode="Ø"/><glyph d="M1554 727v709h365v-709q0 -750 -918 -750q-469 0 -690 187.5t-221 562.5v709h365v-709q0 -446 546 -446q553 0 553 446zM1186 1516h-334l-492 342h588z" glyph-name="Ugrave" horiz-adv-x="2009" unicode="Ù"/><glyph d="M1554 727v709h365v-709q0 -750 -918 -750q-469 0 -690 187.5t-221 562.5v709h365v-709q0 -446 546 -446q553 0 553 446zM1167 1516h-333l237 342h588z" glyph-name="Uacute" horiz-adv-x="2009" unicode="Ú"/><glyph d="M1001 -23q-469 0 -690 187.5t-221 562.5v709h365v-709q0 -446 546 -446q553 0 553 446v709h365v-709q0 -750 -918 -750zM815 1516h-317l321 342h369l321 -342h-317l-166 186h-45z" glyph-name="Ucircumflex" horiz-adv-x="2009" unicode="Û"/><glyph d="M90 727v709h365v-709q0 -446 546 -446q553 0 553 446v709h365v-709q0 -750 -918 -750q-469 0 -690 187.5t-221 562.5zM1266 1516q-90 0 -140.5 32.5t-50.5 128.5q0 94 50.5 127t140.5 33t141 -32.5t51 -127t-51 -128t-141 -33.5zM551 1677q0 94 50 127t140 33 t141.5 -32.5t51.5 -127t-51.5 -128t-141.5 -33.5t-140 32.5t-50 128.5z" glyph-name="Udieresis" horiz-adv-x="2009" unicode="Ü"/><glyph d="M1044 764l533 672h430l-784 -990v-446h-361v446l-782 990h430zM1706 1858l-492 -342h-333l237 342h588z" glyph-name="Yacute" horiz-adv-x="2086" unicode="Ý"/><glyph d="M451 1262h659q96 0 188.5 -26t184.5 -82t149.5 -168t57.5 -265q0 -150 -55.5 -260.5t-145.5 -169t-185.5 -85t-193.5 -26.5h-659v-180h-361v1436h361v-174zM451 948v-454h575q57 0 90 2t83 13t77 33.5t48.5 67.5t21.5 111q0 61 -20.5 106t-49.5 68t-77 35t-84 15t-89 3 h-575z" glyph-name="Thorn" horiz-adv-x="1769" unicode="Þ"/><glyph d="M1483 1057q0 -168 -127 -260q178 -31 265 -125t87 -262q0 -102 -21.5 -173t-92 -116t-130 -69.5t-210 -36t-253 -13.5t-331.5 -2v307q150 0 244 2t175.5 8.5t124.5 15.5t74 27.5t41 42t10 58.5t-10 58.5t-41 42t-74 27.5t-124.5 15t-176 8t-243.5 2v226q270 0 357 26.5 t87 128.5q0 152 -280 152q-199 0 -291 -55.5t-92 -221.5v-870h-369v901q0 170 47 279.5t149.5 169t234.5 82t331 22.5q307 0 473 -91t166 -306z" glyph-name="germandbls" horiz-adv-x="1769" unicode="ß"/><glyph d="M68 348q0 387 727 387h559q-14 63 -56.5 103.5t-112 58.5t-132 23.5t-152.5 5.5q-96 0 -159.5 -5.5t-122 -19.5t-86 -44t-27.5 -77h-359q0 432 758 432q135 0 251 -15t225.5 -54t186.5 -99.5t124 -156.5t47 -219l2 -668h-377v135q-123 -88 -272.5 -123t-372.5 -35 q-651 0 -651 371zM1364 498h-522q-209 0 -306.5 -28t-97.5 -103q0 -141 371 -142q381 0 555 156v117zM1063 1303h-334l-491 342h587z" glyph-name="agrave" horiz-adv-x="1830" unicode="à"/><glyph d="M68 348q0 387 727 387h559q-14 63 -56.5 103.5t-112 58.5t-132 23.5t-152.5 5.5q-96 0 -159.5 -5.5t-122 -19.5t-86 -44t-27.5 -77h-359q0 432 758 432q135 0 251 -15t225.5 -54t186.5 -99.5t124 -156.5t47 -219l2 -668h-377v135q-123 -88 -272.5 -123t-372.5 -35 q-651 0 -651 371zM438 367q0 -141 371 -142q381 0 555 156v117h-522q-209 0 -306.5 -27.5t-97.5 -103.5zM1073 1303h-334l238 342h588z" glyph-name="aacute" horiz-adv-x="1830" unicode="á"/><glyph d="M1739 668l2 -668h-377v135q-123 -88 -272.5 -123t-372.5 -35q-651 0 -651 371q0 387 727 387h559q-14 63 -56.5 103.5t-112 58.5t-132 23.5t-152.5 5.5q-96 0 -159.5 -5.5t-122 -19.5t-86 -44t-27.5 -77h-359q0 432 758 432q135 0 251 -15t225.5 -54t186.5 -99.5 t124 -156.5t47 -219zM438 367q0 -141 371 -142q381 0 555 156v117h-522q-209 0 -306.5 -27.5t-97.5 -103.5zM881 1489l-166 -186h-318l322 342h368l322 -342h-317l-166 186h-45z" glyph-name="acircumflex" horiz-adv-x="1830" unicode="â"/><glyph d="M1739 668l2 -668h-377v135q-123 -88 -272.5 -123t-372.5 -35q-651 0 -651 371q0 387 727 387h559q-14 63 -56.5 103.5t-112 58.5t-132 23.5t-152.5 5.5q-96 0 -159.5 -5.5t-122 -19.5t-86 -44t-27.5 -77h-359q0 432 758 432q135 0 251 -15t225.5 -54t186.5 -99.5 t124 -156.5t47 -219zM616 1313h-307q0 211 60.5 315.5t246.5 104.5q84 0 155 -29t109 -63.5t87 -63.5t100 -29q123 0 123 174h307q0 -211 -60.5 -315t-246.5 -104q-84 0 -153.5 28.5t-106.5 63.5t-87 63.5t-104 28.5q-123 0 -123 -174zM1364 498h-522q-209 0 -306.5 -28 t-97.5 -103q0 -141 371 -142q381 0 555 156v117z" glyph-name="atilde" horiz-adv-x="1830" unicode="ã"/><glyph d="M1739 668l2 -668h-377v135q-123 -88 -272.5 -123t-372.5 -35q-651 0 -651 371q0 387 727 387h559q-14 63 -56.5 103.5t-112 58.5t-132 23.5t-152.5 5.5q-96 0 -159.5 -5.5t-122 -19.5t-86 -44t-27.5 -77h-359q0 432 758 432q135 0 251 -15t225.5 -54t186.5 -99.5 t124 -156.5t47 -219zM438 367q0 -141 371 -142q381 0 555 156v117h-522q-209 0 -306.5 -27.5t-97.5 -103.5zM1165 1303q-90 0 -140 32.5t-50 128.5q0 94 50 127t140 33t141.5 -32.5t51.5 -127t-51.5 -128t-141.5 -33.5zM641 1303q-90 0 -140 32.5t-50 128.5q0 94 50 127 t140 33t141.5 -32.5t51.5 -127t-51.5 -128t-141.5 -33.5z" glyph-name="adieresis" horiz-adv-x="1830" unicode="ä"/><glyph d="M1739 668l2 -668h-377v135q-123 -88 -272.5 -123t-372.5 -35q-651 0 -651 371q0 387 727 387h559q-14 63 -56.5 103.5t-112 58.5t-132 23.5t-152.5 5.5q-96 0 -159.5 -5.5t-122 -19.5t-86 -44t-27.5 -77h-359q0 432 758 432q135 0 251 -15t225.5 -54t186.5 -99.5 t124 -156.5t47 -219zM903 1303q-227 0 -328.5 77.5t-101.5 202.5t101.5 203t328.5 78t328.5 -78t101.5 -203t-101.5 -202.5t-328.5 -77.5zM1364 498h-522q-209 0 -306.5 -28t-97.5 -103q0 -141 371 -142q381 0 555 156v117zM903 1683q-176 0 -176 -100t176 -100t176 100 t-176 100z" glyph-name="aring" horiz-adv-x="1830" unicode="å"/><glyph d="M2673 418h358q-33 -211 -254 -327t-573 -116q-406 0 -635 187q-113 -92 -285 -138.5t-463 -46.5q-135 0 -240.5 9.5t-205 34t-165 65.5t-104 106.5t-38.5 155.5q0 387 727 387h553q-35 119 -145.5 155t-301.5 36q-96 0 -159.5 -5.5t-122 -19.5t-86 -44t-27.5 -77h-359 q0 432 758 432q459 0 668 -174q217 174 641 174q195 0 342 -34.5t266 -113.5t178.5 -221.5t51.5 -344.5h-1295q29 -131 143.5 -182.5t303.5 -51.5q408 0 469 154zM438 367q0 -141 371 -142q381 0 555 156l-2 117h-520q-209 0 -306.5 -27.5t-97.5 -103.5zM2214 926 q-426 0 -469 -221h934q-47 221 -465 221z" glyph-name="ae" horiz-adv-x="3133" unicode="æ"/><glyph d="M778 -190l56 170q-369 20 -561.5 178.5t-192.5 433.5q0 301 217 459.5t633 158.5q393 0 601 -133t234 -372h-364q-57 211 -471 210q-485 0 -486 -321q0 -326 486 -326q416 0 473 209h362q-53 -457 -712 -495l-35 -78h8q57 0 91 -1t86 -11.5t82 -29t52.5 -56t22.5 -91 t-23.5 -91.5t-60.5 -58.5t-106.5 -30.5t-134 -13t-173.5 -3h-149v176h166q121 0 168 10t47 45q0 41 -39 50.5t-174 9.5h-103z" glyph-name="ccedilla" horiz-adv-x="1845" unicode="ç"/><glyph d="M1380 418h361q-35 -211 -255 -326t-573 -115q-100 0 -199.5 13.5t-218 54.5t-206.5 105.5t-148.5 179t-60.5 262.5q0 305 221 461.5t623 156.5q195 0 342 -34.5t266 -112.5t178 -220.5t51 -344.5h-1296q29 -133 150.5 -188.5t328.5 -55.5q360 0 436 164zM924 926 q-430 0 -469 -221h931q-46 221 -462 221zM1073 1303h-334l-491 342h588z" glyph-name="egrave" horiz-adv-x="1841" unicode="è"/><glyph d="M1380 418h361q-35 -211 -255 -326t-573 -115q-100 0 -199.5 13.5t-218 54.5t-206.5 105.5t-148.5 179t-60.5 262.5q0 305 221 461.5t623 156.5q195 0 342 -34.5t266 -112.5t178 -220.5t51 -344.5h-1296q29 -133 150.5 -188.5t328.5 -55.5q360 0 436 164zM924 926 q-430 0 -469 -221h931q-46 221 -462 221zM750 1303l237 342h588l-492 -342h-333z" glyph-name="eacute" horiz-adv-x="1841" unicode="é"/><glyph d="M80 592q0 305 221 461.5t623 156.5q195 0 342 -34.5t266 -112.5t178 -220.5t51 -344.5h-1296q29 -133 150.5 -188.5t328.5 -55.5q360 0 436 164h361q-35 -211 -255 -326t-573 -115q-100 0 -199.5 13.5t-218 54.5t-206.5 105.5t-148.5 179.5t-60.5 262zM899 1489 l-166 -186h-317l321 342h369l321 -342h-317l-166 186h-45zM924 926q-430 0 -469 -221h931q-46 221 -462 221z" glyph-name="ecircumflex" horiz-adv-x="1841" unicode="ê"/><glyph d="M80 592q0 305 221 461.5t623 156.5q195 0 342 -34.5t266 -112.5t178 -220.5t51 -344.5h-1296q29 -133 150.5 -188.5t328.5 -55.5q360 0 436 164h361q-35 -211 -255 -326t-573 -115q-100 0 -199.5 13.5t-218 54.5t-206.5 105.5t-148.5 179.5t-60.5 262zM924 926 q-430 0 -469 -221h931q-46 221 -462 221zM1184 1303q-90 0 -140.5 32.5t-50.5 128.5q0 94 50.5 127t140.5 33t141 -32.5t51 -127t-51 -128t-141 -33.5zM659.5 1303q-90.5 0 -140.5 32.5t-50 128.5q0 94 50 127t140.5 33t141.5 -32.5t51 -127t-51 -128t-141.5 -33.5z" glyph-name="edieresis" horiz-adv-x="1841" unicode="ë"/><glyph d="M455 0h-363v1188h363v-1188zM102 1303l-493 342h590l237 -342h-334z" glyph-name="igrave" horiz-adv-x="546" unicode="ì"/><glyph d="M92 0v1188h363v-1188h-363zM938 1645l-492 -342h-333l237 342h588z" glyph-name="iacute" horiz-adv-x="546" unicode="í"/><glyph d="M92 0v1188h363v-1188h-363zM248 1489l-166 -186h-320l324 342h369l321 -342h-317l-166 186h-45z" glyph-name="icircumflex" horiz-adv-x="546" unicode="î"/><glyph d="M92 0v1188h363v-1188h-363zM4 1303q-90 0 -140 32.5t-50 128.5q0 94 50 127t140 33t141.5 -32.5t51.5 -127.5q0 -96 -51.5 -128.5t-141.5 -32.5zM338 1464q0 94 50 127t140 33t141.5 -32.5t51.5 -127.5q0 -96 -51.5 -128.5t-141.5 -32.5t-140 32.5t-50 128.5z" glyph-name="idieresis" horiz-adv-x="546" unicode="ï"/><glyph d="M82 569q0 272 167 425t521 153q246 0 425 -80t280 -211q-29 354 -367 514l-57 -135l-220 76l58 137q-168 43 -406 55l21 320q272 -12 512 -78l49 113l219 -78l-49 -113q614 -268 614 -897q0 -207 -80.5 -363.5t-219 -247.5t-306.5 -135t-358 -44q-803 -1 -803 589z M807 840q-346 0 -346 -271q0 -145 98 -213.5t305 -68.5q211 0 368 66.5t202 197.5q-72 127 -263.5 208t-363.5 81z" glyph-name="eth" horiz-adv-x="1931" unicode="ð"/><glyph d="M90 0v1188h361v-193q248 215 669 215q307 0 466 -141t161 -451l-4 -618h-361v571q0 365 -362 365q-188 0 -357 -88t-212 -230v-618h-361zM621 1313h-308q0 211 60.5 315.5t247.5 104.5q84 0 154.5 -29t108.5 -63.5t87 -63.5t100 -29q123 0 123 174h307q0 -211 -60.5 -315 t-246.5 -104q-84 0 -153.5 28.5t-106.5 63.5t-87 63.5t-104 28.5q-122 0 -122 -174z" glyph-name="ntilde" horiz-adv-x="1835" unicode="ñ"/><glyph d="M932 -23q-393 0 -620.5 148.5t-227.5 466.5q0 618 848 618q862 0 862 -618q0 -164 -64.5 -284t-183.5 -191.5t-271.5 -105.5t-342.5 -34zM940 934q-240 0 -362.5 -76t-122.5 -260q0 -342 485 -342t485 342q0 184 -122.5 260t-362.5 76zM1094 1303h-334l-492 342h588z" glyph-name="ograve" horiz-adv-x="1873" unicode="ò"/><glyph d="M932 -23q-393 0 -620.5 148.5t-227.5 466.5q0 618 848 618q862 0 862 -618q0 -164 -64.5 -284t-183.5 -191.5t-271.5 -105.5t-342.5 -34zM455 598q0 -342 485 -342t485 342q0 184 -122.5 260t-362.5 76t-362.5 -76t-122.5 -260zM1591 1645l-491 -342h-334l238 342h587z " glyph-name="oacute" horiz-adv-x="1873" unicode="ó"/><glyph d="M932 -23q-393 0 -620.5 148.5t-227.5 466.5q0 618 848 618q862 0 862 -618q0 -164 -64.5 -284t-183.5 -191.5t-271.5 -105.5t-342.5 -34zM455 598q0 -342 485 -342t485 342q0 184 -122.5 260t-362.5 76t-362.5 -76t-122.5 -260zM756 1645h368l322 -342h-318l-165 186h-45 l-166 -186h-318z" glyph-name="ocircumflex" horiz-adv-x="1873" unicode="ô"/><glyph d="M84 592q0 618 848 618q862 0 862 -618q0 -164 -64.5 -284t-183.5 -191.5t-271.5 -105.5t-342.5 -34q-393 0 -620.5 149t-227.5 466zM455 598q0 -342 485 -342t485 342q0 184 -122.5 260t-362.5 76t-362.5 -76t-122.5 -260zM1227 1722h307q0 -211 -60.5 -315t-246.5 -104 q-84 0 -153.5 28.5t-106.5 63.5t-87.5 63.5t-103.5 28.5q-123 0 -123 -174h-307q0 211 60.5 315.5t246.5 104.5q84 0 154 -29t107.5 -63.5t88 -63.5t101.5 -29q123 0 123 174z" glyph-name="otilde" horiz-adv-x="1873" unicode="õ"/><glyph d="M932 -23q-393 0 -620.5 148.5t-227.5 466.5q0 618 848 618q862 0 862 -618q0 -164 -64.5 -284t-183.5 -191.5t-271.5 -105.5t-342.5 -34zM455 598q0 -342 485 -342t485 342q0 184 -122.5 260t-362.5 76t-362.5 -76t-122.5 -260zM676 1303q-90 0 -140.5 32.5t-50.5 128.5 q0 94 50.5 127t140.5 33t141 -32.5t51 -127.5q0 -96 -51 -128.5t-141 -32.5zM1393 1464q0 -96 -51.5 -128.5t-141.5 -32.5t-140 32.5t-50 128.5q0 94 50 127t140 33t141.5 -33t51.5 -127z" glyph-name="odieresis" horiz-adv-x="1873" unicode="ö"/><glyph d="M129 561v330h1661v-330h-1661zM754 1184q0 82 54 111.5t150 29.5q98 0 153.5 -29.5t55.5 -111.5q0 -84 -55 -114t-154 -30q-96 0 -150 30t-54 114zM958 125q-96 0 -150 29.5t-54 113.5q0 82 54 112t150 30q98 0 153.5 -30t55.5 -112q0 -84 -55.5 -113.5t-153.5 -29.5z " glyph-name="divide" horiz-adv-x="1916" unicode="÷"/><glyph d="M545 23l-172 -181h-297l256 271q-248 154 -248 479q0 618 848 618q240 0 403 -45l170 181h297l-254 -269q246 -154 246 -485q0 -164 -64.5 -284t-183.5 -191.5t-271.5 -105.5t-342.5 -34q-221 1 -387 46zM455 598q0 -164 104 -246l545 572q-61 10 -164 10 q-240 0 -362.5 -76t-122.5 -260zM1323 842l-547 -576q86 -10 164 -10q485 0 485 342q0 164 -102 244z" glyph-name="oslash" horiz-adv-x="1873" unicode="ø"/><glyph d="M1384 571v617h363v-1188h-363v193q-252 -215 -669 -216q-307 0 -465 142.5t-160 449.5l2 619h363v-572q0 -362 362 -362q188 0 357 87t210 230zM739 1303l-491 342h588l237 -342h-334z" glyph-name="ugrave" horiz-adv-x="1835" unicode="ù"/><glyph d="M1384 571v617h363v-1188h-363v193q-252 -215 -669 -216q-307 0 -465 142.5t-160 449.5l2 619h363v-572q0 -362 362 -362q188 0 357 87t210 230zM1561 1645l-492 -342h-334l238 342h588z" glyph-name="uacute" horiz-adv-x="1835" unicode="ú"/><glyph d="M715 -23q-307 0 -465 142.5t-160 449.5l2 619h363v-572q0 -362 362 -362q188 0 357 87t210 230v617h363v-1188h-363v193q-251 -216 -669 -216zM897 1489l-166 -186h-317l321 342h369l321 -342h-317l-166 186h-45z" glyph-name="ucircumflex" horiz-adv-x="1835" unicode="û"/><glyph d="M715 -23q-307 0 -465 142.5t-160 449.5l2 619h363v-572q0 -362 362 -362q188 0 357 87t210 230v617h363v-1188h-363v193q-251 -216 -669 -216zM1180 1303q-90 0 -140.5 32.5t-50.5 128.5q0 94 50.5 127t140.5 33t141 -32.5t51 -127.5q0 -96 -51 -128.5t-141 -32.5z M465 1464q0 94 50 127t140 33t141.5 -32.5t51.5 -127.5q0 -96 -51.5 -128.5t-141.5 -32.5t-140 32.5t-50 128.5z" glyph-name="udieresis" horiz-adv-x="1835" unicode="ü"/><glyph d="M1458 1188h420l-700 -1307q-133 -248 -257 -321.5t-399 -73.5h-205v293h86q225 0 314.5 40t159.5 181h-113l-688 1188h418l505 -871zM1110 1303h-334l238 342h588z" glyph-name="yacute" horiz-adv-x="1953" unicode="ý"/><glyph d="M1055 1208q768 0 768 -624q0 -158 -61.5 -279t-169 -192.5t-243 -106.5t-294.5 -35q-408 0 -604 215v-589h-361v2041h361v-630q194 200 604 200zM981 928q-281 0 -405.5 -81t-124.5 -257t125.5 -258t404.5 -82q217 0 341 84t124 256t-125 255t-340 83z" glyph-name="thorn" horiz-adv-x="1894" unicode="þ"/><glyph d="M764 0l-688 1188h418l505 -871l459 871h420l-700 -1307q-133 -248 -257 -321.5t-399 -73.5h-205v293h86q225 0 314.5 40t159.5 181h-113zM1047 1464q0 94 50 127t140 33t141.5 -32.5t51.5 -127t-51.5 -128t-141.5 -33.5t-140 32.5t-50 128.5zM713 1303q-90 0 -140.5 32.5 t-50.5 128.5q0 94 50.5 127t140.5 33t141 -32.5t51 -127t-51 -128t-141 -33.5z" glyph-name="ydieresis" horiz-adv-x="1953" unicode="ÿ"/><glyph d="M1339 1436l748 -1436h-412l-149 291h-883l-149 -291h-410l745 1436h510zM571 1784h1020v-268h-1020v268zM1100 1116h-31l-266 -516h563z" glyph-name="Amacron" horiz-adv-x="2166" unicode="Ā"/><glyph d="M68 348q0 387 727 387h559q-14 63 -56.5 103.5t-112 58.5t-132 23.5t-152.5 5.5q-96 0 -159.5 -5.5t-122 -19.5t-86 -44t-27.5 -77h-359q0 432 758 432q135 0 251 -15t225.5 -54t186.5 -99.5t124 -156.5t47 -219l2 -668h-377v135q-123 -88 -272.5 -123t-372.5 -35 q-651 0 -651 371zM406 1303l-3 268h1022v-268h-1019zM438 367q0 -141 371 -142q381 0 555 156v117h-522q-209 0 -306.5 -27.5t-97.5 -103.5z" glyph-name="amacron" horiz-adv-x="1830" unicode="ā"/><glyph d="M494 0h-410l745 1436h510l748 -1436h-412l-149 291h-883zM631 1872h246q0 -156 208.5 -156t208.5 156h246q0 -201 -120 -278.5t-335 -77.5t-334.5 77.5t-119.5 278.5zM1100 1116h-31l-266 -516h563z" glyph-name="Abreve" horiz-adv-x="2166" unicode="Ă"/><glyph d="M719 -23q-651 0 -651 371q0 387 727 387h559q-14 63 -56.5 103.5t-112 58.5t-132 23.5t-152.5 5.5q-96 0 -159.5 -5.5t-122 -19.5t-86 -44t-27.5 -77h-359q0 432 758 432q135 0 251 -15t225.5 -54t186.5 -99.5t124 -156.5t47 -219l2 -668h-377v135q-123 -88 -272.5 -123 t-372.5 -35zM903 1303q-215 0 -334.5 77.5t-119.5 278.5h245q0 -156 209 -156t209 156h246q0 -201 -120 -278.5t-335 -77.5zM1364 498h-522q-209 0 -306.5 -28t-97.5 -103q0 -141 371 -142q381 0 555 156v117z" glyph-name="abreve" horiz-adv-x="1830" unicode="ă"/><glyph d="M494 0h-410l745 1436h510l748 -1436h-154q-25 -20 -34 -28.5t-27.5 -27t-25.5 -36t-7 -35.5q0 -66 79 -82t245 -16v-246q-334 0 -462 43t-128 186q0 137 162 242h-60l-149 291h-883zM1100 1116h-31l-266 -516h563z" glyph-name="Aogonek" horiz-adv-x="2166" unicode="Ą"/><glyph d="M68 348q0 387 727 387h559q-14 63 -56.5 103.5t-112 58.5t-132 23.5t-152.5 5.5q-96 0 -159.5 -5.5t-122 -19.5t-86 -44t-27.5 -77h-359q0 432 758 432q135 0 251 -15t225.5 -54t186.5 -99.5t124 -156.5t47 -219l2 -668h-123q-25 -20 -34 -28.5t-27.5 -27t-25.5 -36 t-7 -35.5q0 -66 78.5 -82t244.5 -16v-246q-334 0 -462 43t-128 186q0 137 162 242h-55v135q-123 -88 -272.5 -123t-372.5 -35q-651 0 -651 371zM438 367q0 -141 371 -142q381 0 555 156v117h-522q-209 0 -306.5 -27.5t-97.5 -103.5z" glyph-name="aogonek" horiz-adv-x="1830" unicode="ą"/><glyph d="M1542 598h373q-20 -283 -250.5 -452t-679.5 -169q-446 0 -675.5 196t-229.5 544q0 362 227.5 551.5t677.5 189.5q453 0 681 -168t247 -467h-371q-20 131 -151 226.5t-385 95.5q-291 0 -429.5 -106.5t-138.5 -321.5q0 -424 568 -424q256 0 387 88t149 217zM1647 1858 l-492 -342h-334l238 342h588z" glyph-name="Cacute" horiz-adv-x="1992" unicode="Ć"/><glyph d="M1765 705h-364q-57 211 -471 210q-485 0 -486 -321q0 -326 486 -326q416 0 473 209h362q-27 -240 -233.5 -370t-601.5 -130q-414 0 -632 161t-218 454q0 301 217 459.5t633 158.5q393 0 600.5 -132.5t234.5 -372.5zM1565 1645l-492 -342h-334l238 342h588z" glyph-name="cacute" horiz-adv-x="1845" unicode="ć"/><glyph d="M1542 598h373q-20 -283 -250.5 -452t-679.5 -169q-446 0 -675.5 196t-229.5 544q0 362 227.5 551.5t677.5 189.5q453 0 681 -168t247 -467h-371q-20 131 -151 226.5t-385 95.5q-291 0 -429.5 -106.5t-138.5 -321.5q0 -424 568 -424q256 0 387 88t149 217zM803 1677 q0 94 50 127t140 33t141.5 -32.5t51.5 -127t-51.5 -128t-141.5 -33.5t-140 32.5t-50 128.5z" glyph-name="Cdotaccent" horiz-adv-x="1992" unicode="Ċ"/><glyph d="M1765 705h-364q-57 211 -471 210q-485 0 -486 -321q0 -326 486 -326q416 0 473 209h362q-27 -240 -233.5 -370t-601.5 -130q-414 0 -632 161t-218 454q0 301 217 459.5t633 158.5q393 0 600.5 -132.5t234.5 -372.5zM924 1303q-90 0 -140.5 32.5t-50.5 128.5 q0 94 50.5 127t140.5 33t141 -32.5t51 -127t-51 -128t-141 -33.5z" glyph-name="cdotaccent" horiz-adv-x="1845" unicode="ċ"/><glyph d="M985 -23q-446 0 -675.5 196t-229.5 544q0 362 227.5 551.5t677.5 189.5q453 0 681 -168t247 -467h-371q-20 131 -151 226.5t-385 95.5q-291 0 -429.5 -106.5t-138.5 -321.5q0 -424 568 -424q256 0 387 88t149 217h373q-20 -283 -250.5 -452t-679.5 -169zM1176 1516h-369 l-322 342h318l166 -187h45l166 187h317z" glyph-name="Ccaron" horiz-adv-x="1992" unicode="Č"/><glyph d="M930 -23q-414 0 -632 161t-218 454q0 301 217 459.5t633 158.5q393 0 601 -133t234 -372h-364q-57 211 -471 210q-485 0 -486 -321q0 -326 486 -326q416 0 473 209h362q-27 -240 -233.5 -370t-601.5 -130zM1108 1303h-369l-321 342h317l166 -187h45l166 187h318z" glyph-name="ccaron" horiz-adv-x="1845" unicode="č"/><glyph d="M90 0v1436h1004q160 0 291 -36t240.5 -115t171 -223t61.5 -343q0 -188 -64.5 -330.5t-175.5 -225.5t-243 -123t-279 -40h-1006zM451 1137v-838h557q489 0 489 418q0 219 -120 319.5t-369 100.5h-557zM1042 1516h-368l-322 342h318l166 -187h45l166 187h317z" glyph-name="Dcaron" horiz-adv-x="1937" unicode="Ď"/><glyph d="M836 -23q-756 0 -756 625q0 301 206 454.5t550 153.5q408 0 614 -211v639h362v-1638h-362l2 176q-204 -199 -616 -199zM920 936q-205 0 -334 -83t-129 -257q0 -176 128 -257t335 -81q272 0 401 79t129 257q0 180 -131 261t-399 81zM1892 1087v451h326v-256l-190 -195 h-136z" glyph-name="dcaron" horiz-adv-x="2271" unicode="ď"/><glyph d="M1167 1436q160 0 291 -36t241.5 -115t172 -223t61.5 -343q0 -188 -64.5 -330.5t-175 -225.5t-242.5 -123t-280 -40h-1007v598h-103v238h103v600h1003zM1083 299q487 0 488 418q0 219 -119 319.5t-369 100.5h-557v-301h445v-238h-445v-299h557z" glyph-name="Dcroat" horiz-adv-x="2013" unicode="Đ"/><glyph d="M836 -23q-756 0 -756 625q0 301 206 454.5t550 153.5q408 0 614 -211v209h-344v238h344v192h362v-192h80v-238h-80v-1208h-362l2 176q-204 -199 -616 -199zM457 596q0 -176 128 -257t335 -81q272 0 401 79t129 257q0 180 -131 261t-399 81q-205 0 -334 -83t-129 -257z " glyph-name="dcroat" horiz-adv-x="1953" unicode="đ"/><glyph d="M98 1436h1540v-301h-1189v-269h1093v-295h-1093v-268h1189v-303h-1540v1436zM1380 1516h-1020l-2 268h1022v-268z" glyph-name="Emacron" horiz-adv-x="1736" unicode="Ē"/><glyph d="M944 254q360 0 436 164h361q-35 -211 -255 -326t-573 -115q-100 0 -199.5 13.5t-218 54.5t-206.5 105.5t-148.5 179t-60.5 262.5q0 305 221 461.5t623 156.5q195 0 342 -34.5t266 -112.5t178 -220.5t51 -344.5h-1296q29 -133 150.5 -188.5t328.5 -55.5zM426 1571h1022 v-268h-1020zM455 705h931q-47 221 -462 221q-430 0 -469 -221z" glyph-name="emacron" horiz-adv-x="1841" unicode="ē"/><glyph d="M98 1436h1540v-301h-1189v-269h1093v-295h-1093v-268h1189v-303h-1540v1436zM678 1677q0 94 50 127t140 33t141.5 -32.5t51.5 -127t-51.5 -128t-141.5 -33.5t-140 32.5t-50 128.5z" glyph-name="Edotaccent" horiz-adv-x="1736" unicode="Ė"/><glyph d="M1380 418h361q-35 -211 -255 -326t-573 -115q-100 0 -199.5 13.5t-218 54.5t-206.5 105.5t-148.5 179t-60.5 262.5q0 305 221 461.5t623 156.5q195 0 342 -34.5t266 -112.5t178 -220.5t51 -344.5h-1296q29 -133 150.5 -188.5t328.5 -55.5q360 0 436 164zM924 926 q-430 0 -469 -221h931q-46 221 -462 221zM921.5 1303q-90.5 0 -140.5 32.5t-50 128.5q0 94 50 127t140.5 33t141.5 -32.5t51 -127t-51 -128t-141.5 -33.5z" glyph-name="edotaccent" horiz-adv-x="1841" unicode="ė"/><glyph d="M1210 0h-1112v1436h1540v-301h-1189v-269h1093v-295h-1093v-268h1189v-303h-229q-25 -20 -34 -28.5t-27.5 -27t-25.5 -36t-7 -35.5q0 -66 79 -82t244 -16v-246q-334 0 -461.5 43t-127.5 186q-1 138 161 242z" glyph-name="Eogonek" horiz-adv-x="1736" unicode="Ę"/><glyph d="M1276 -225v-246q-334 0 -462 43t-128 186q0 125 133 224q-98 6 -192.5 25.5t-196.5 63.5t-177 109.5t-124 172t-49 239.5q0 305 221 461.5t623 156.5q195 0 342 -34.5t266 -112.5t178 -220.5t51 -344.5h-1296q29 -133 150.5 -188.5t328.5 -55.5q360 0 436 164h361 q-33 -193 -222.5 -306.5t-496.5 -131.5q-70 -57 -70 -107q0 -66 79 -82t245 -16zM924 926q-430 0 -469 -221h931q-46 221 -462 221z" glyph-name="eogonek" horiz-adv-x="1841" unicode="ę"/><glyph d="M98 0v1436h1540v-301h-1189v-269h1093v-295h-1093v-268h1189v-303h-1540zM684 1516l-322 342h318l166 -187h45l166 187h317l-321 -342h-369z" glyph-name="Ecaron" horiz-adv-x="1736" unicode="Ě"/><glyph d="M80 592q0 305 221 461.5t623 156.5q195 0 342 -34.5t266 -112.5t178 -220.5t51 -344.5h-1296q29 -133 150.5 -188.5t328.5 -55.5q360 0 436 164h361q-35 -211 -255 -326t-573 -115q-100 0 -199.5 13.5t-218 54.5t-206.5 105.5t-148.5 179.5t-60.5 262zM737 1303l-321 342 h317l166 -187h45l166 187h317l-321 -342h-369zM924 926q-430 0 -469 -221h931q-46 221 -462 221z" glyph-name="ecaron" horiz-adv-x="1841" unicode="ě"/><glyph d="M991 -23q-451 0 -681 195t-230 545q0 362 228.5 551.5t682.5 189.5q903 0 924 -563h-377q-4 37 -13 64.5t-43 64.5t-89.5 61.5t-159 42t-242.5 17.5q-553 0 -553 -428q0 -59 11.5 -111.5t47 -112t94 -102.5t161 -70.5t239.5 -27.5q233 0 362.5 75.5t157.5 161.5h-518v271 h922v-801h-311v170q-234 -193 -613 -193zM543 1872h245q0 -156 209 -156t209 156h246q0 -201 -120 -278.5t-335 -77.5t-334.5 77.5t-119.5 278.5z" glyph-name="Gbreve" horiz-adv-x="1992" unicode="Ğ"/><glyph d="M1659 1386h151v-290q-98 0 -144 -12.5t-67 -49.5q195 -150 195 -432q0 -598 -862 -598q-117 0 -241 10.5t-136 10.5q-53 0 -53 -33q0 -49 77.5 -65.5t333.5 -24.5q438 -8 630 -93t192 -309h-402q0 49 -26.5 77t-126 48.5t-291.5 24.5q-408 6 -577 84t-169 266 q0 135 82 215q-141 145 -141 387q0 608 856 608q168 0 315 -41q43 117 140.5 167t263.5 50zM940 932q-240 0 -362.5 -76t-122.5 -260q0 -178 122.5 -250t362.5 -72t362.5 72t122.5 250q0 184 -122.5 260t-362.5 76zM449 1659h245q0 -156 209 -156t209 156h246 q0 -201 -120 -278.5t-335 -77.5t-334.5 77.5t-119.5 278.5z" glyph-name="gbreve" horiz-adv-x="1892" unicode="ğ"/><glyph d="M80 717q0 362 228.5 551.5t682.5 189.5q903 0 924 -563h-377q-4 37 -13 64.5t-43 64.5t-89.5 61.5t-159 42t-242.5 17.5q-553 0 -553 -428q0 -59 11.5 -111.5t47 -112t94 -102.5t161 -70.5t239.5 -27.5q233 0 362.5 75.5t157.5 161.5h-518v271h922v-801h-311v170 q-233 -193 -613 -193q-451 0 -681 195t-230 545zM997 1516q-90 0 -140 32.5t-50 128.5q0 94 50 127t140 33t141.5 -32.5t51.5 -127t-51.5 -128t-141.5 -33.5z" glyph-name="Gdotaccent" horiz-adv-x="1992" unicode="Ġ"/><glyph d="M225 215q-141 145 -141 387q0 608 856 608q168 0 315 -41q43 117 140.5 167t263.5 50h151v-290q-98 0 -144 -12.5t-67 -49.5q195 -150 195 -432q0 -598 -862 -598q-117 0 -241 10.5t-136 10.5q-53 0 -53 -33q0 -49 77.5 -65.5t333.5 -24.5q438 -8 630 -93t192 -309h-402 q0 49 -26.5 77t-126 48.5t-291.5 24.5q-408 6 -577 84t-169 266q0 135 82 215zM455 596q0 -178 122.5 -250t362.5 -72t362.5 72t122.5 250q0 184 -122.5 260t-362.5 76t-362.5 -76t-122.5 -260zM735 1464q0 94 50.5 127t140.5 33t141 -32.5t51 -127.5q0 -96 -51 -128.5 t-141 -32.5t-140.5 32.5t-50.5 128.5z" glyph-name="gdotaccent" horiz-adv-x="1892" unicode="ġ"/><glyph d="M80 717q0 362 228.5 551.5t682.5 189.5q903 0 924 -563h-377q-4 37 -13 64.5t-43 64.5t-89.5 61.5t-159 42t-242.5 17.5q-553 0 -553 -428q0 -59 11.5 -111.5t47 -112t94 -102.5t161 -70.5t239.5 -27.5q233 0 362.5 75.5t157.5 161.5h-518v271h922v-801h-311v170 q-233 -193 -613 -193q-451 0 -681 195t-230 545zM1067 -373h-18q-90 0 -140.5 33t-50.5 129q0 92 50 125t140.5 33t141.5 -33t51 -123v-4q0 -309 -250 -309v86q70 0 76 63z" glyph-name="Gcommaaccent" horiz-adv-x="1992" unicode="Ģ"/><glyph d="M1659 1386h151v-290q-98 0 -144 -12.5t-67 -49.5q195 -150 195 -432q0 -598 -862 -598q-117 0 -241 10.5t-136 10.5q-53 0 -53 -33q0 -49 77.5 -65.5t333.5 -24.5q438 -8 630 -93t192 -309h-402q0 49 -26.5 77t-126 48.5t-291.5 24.5q-408 6 -577 84t-169 266 q0 135 82 215q-141 145 -141 387q0 608 856 608q168 0 315 -41q43 117 140.5 167t263.5 50zM940 932q-240 0 -362.5 -76t-122.5 -260q0 -178 122.5 -250t362.5 -72t362.5 72t122.5 250q0 184 -122.5 260t-362.5 76zM711 1442v4q0 309 250 309v-86q-70 0 -76 -63h18 q90 0 140.5 -33t50.5 -129q0 -92 -50.5 -125t-140.5 -33t-141 33t-51 123z" glyph-name="gcommaaccent" horiz-adv-x="1892" unicode="ģ"/><glyph d="M90 0v1049h-61v237h61v150h350v-150h1114v150h353v-150h71v-237h-71v-1049h-353v557h-1114v-557h-350zM1554 881v168h-1114v-168h1114z" glyph-name="Hbar" horiz-adv-x="2007" unicode="Ħ"/><glyph d="M139 1300h-78v238h78v100h363v-100h536v-238h-536v-321q262 233 669 233q307 0 475.5 -148.5t170.5 -455.5l-2 -608h-363v571q0 184 -101.5 274.5t-281.5 90.5q-188 0 -357 -88t-210 -230v-618h-363v1300z" glyph-name="hbar" horiz-adv-x="1929" unicode="ħ"/><glyph d="M98 0v1436h351v-1436h-351zM780 1516h-1022v268h1022v-268z" glyph-name="Imacron" horiz-adv-x="546" unicode="Ī"/><glyph d="M455 1188v-1188h-363v1188h363zM-240 1303l-2 268h1022v-268h-1020z" glyph-name="imacron" horiz-adv-x="546" unicode="ī"/><glyph d="M621 -225v-246q-334 0 -462 43t-128 186q0 137 162 242h-95v1436h351v-1436h-58q-25 -20 -34 -28.5t-27.5 -27t-25.5 -36t-7 -35.5q0 -66 79 -82t245 -16z" glyph-name="Iogonek" horiz-adv-x="546" unicode="Į"/><glyph d="M92 1188h363v-1188h-62q-25 -20 -34 -28.5t-27.5 -27t-25.5 -36t-7 -35.5q0 -66 79 -82t245 -16v-246q-334 0 -462 43t-128 186q0 137 162 242h-103v1188zM274.5 1274q-100.5 0 -153.5 29.5t-53 130t53 131t153 30.5q49 0 80 -5t63 -19.5t47 -49t15 -87.5 q0 -100 -52 -130t-152.5 -30z" glyph-name="iogonek" horiz-adv-x="546" unicode="į"/><glyph d="M98 0v1436h351v-1436h-351zM78 1677q0 94 50 127t140 33t141.5 -32.5t51.5 -127.5q0 -96 -51.5 -128.5t-141.5 -32.5t-140 32.5t-50 128.5z" glyph-name="Idotaccent" horiz-adv-x="546" unicode="İ"/><glyph d="M455 0h-363v1188h363v-1188z" glyph-name="dotlessi" horiz-adv-x="546" unicode="ı"/><glyph d="M440 244v-244h-350v1436h350v-791l1018 791h508l-823 -643l864 -793h-494l-626 592zM991 -373h-18q-90 0 -140.5 33t-50.5 129q0 92 51.5 125t139.5 33q90 0 141 -32t51 -124v-4q0 -309 -250 -309v86q70 0 76 63z" glyph-name="Kcommaaccent" horiz-adv-x="2086" unicode="Ķ"/><glyph d="M451 252v-252h-361v1638h361v-979l780 529h563l-768 -535l778 -653h-514l-540 459zM883 -373h-19q-90 0 -140 33t-50 129q0 92 50 125t140 33t141.5 -33t51.5 -123v-4q0 -309 -250 -309v86q70 0 76 63z" glyph-name="kcommaaccent" horiz-adv-x="1871" unicode="ķ"/><glyph d="M1587 0h-1497v1436h350v-1106h1147v-330zM926 1858l-492 -342h-334l238 342h588z" glyph-name="Lacute" horiz-adv-x="1667" unicode="Ĺ"/><glyph d="M455 1624v-1624h-363v1638h33l221 320h588z" glyph-name="lacute" horiz-adv-x="546" unicode="ĺ"/><glyph d="M440 330h1147v-330h-1497v1436h350v-1106zM1051 -209v-4q0 -309 -250 -309v86q70 0 76 63h-19q-90 0 -140 33t-50 129q0 92 50 125t140 33t141.5 -33t51.5 -123z" glyph-name="Lcommaaccent" horiz-adv-x="1667" unicode="Ļ"/><glyph d="M455 1638v-1638h-363v1638h363zM315 -373h-18q-90 0 -140.5 33t-50.5 129q0 92 51.5 125t139.5 33q90 0 141 -32t51 -124v-4q0 -309 -249 -309v86q69 0 75 63z" glyph-name="lcommaaccent" horiz-adv-x="546" unicode="ļ"/><glyph d="M440 330h1147v-330h-1497v1436h350v-1106zM1632 1360v-4q0 -309 -250 -309v86q70 0 76 63h-18q-90 0 -140.5 33t-50.5 129q0 92 50.5 125t140.5 33t141 -33t51 -123z" glyph-name="Lcaron" horiz-adv-x="1667" unicode="Ľ"/><glyph d="M455 0h-363v1638h363v-1638zM866 1282l-190 -195h-135v451h325v-256z" glyph-name="lcaron" horiz-adv-x="929" unicode="ľ"/><glyph d="M573 961l367 161v-258l-367 -162v-372h1147v-330h-1497v547l-153 -68v258l153 68v631h350v-475z" glyph-name="Lslash" horiz-adv-x="1806" unicode="Ł"/><glyph d="M276 0v657l-213 -98v258l213 98v723h363v-555l254 119v-258l-254 -119v-825h-363z" glyph-name="lslash" horiz-adv-x="958" unicode="ł"/><glyph d="M1579 399v1037h350v-1436h-481l-1008 1047v-1047h-350v1436h490zM1657 1858l-492 -342h-334l238 342h588z" glyph-name="Nacute" horiz-adv-x="2019" unicode="Ń"/><glyph d="M1747 618l-4 -618h-361v571q0 365 -362 365q-188 0 -357 -88t-212 -230v-618h-361v1188h361v-193q248 215 669 215q307 0 466 -141.5t161 -450.5zM1073 1303h-334l238 342h588z" glyph-name="nacute" horiz-adv-x="1835" unicode="ń"/><glyph d="M440 1047v-1047h-350v1436h490l999 -1037v1037h350v-1436h-481zM850 -211q0 92 50 125t140 33t141.5 -33t51.5 -123v-4q0 -309 -250 -309v86q70 0 76 63h-19q-90 0 -140 33t-50 129z" glyph-name="Ncommaaccent" horiz-adv-x="2019" unicode="Ņ"/><glyph d="M451 0h-361v1188h361v-193q248 215 669 215q307 0 466 -141t161 -451l-4 -618h-361v571q0 365 -362 365q-188 0 -357 -88t-212 -230v-618zM748 -211q0 92 50 125t140 33t141 -33t51 -123v-4q0 -309 -249 -309v86q70 0 75 63h-18q-90 0 -140 33t-50 129z" glyph-name="ncommaaccent" horiz-adv-x="1835" unicode="ņ"/><glyph d="M440 1047v-1047h-350v1436h490l999 -1037v1037h350v-1436h-481zM1194 1516h-369l-321 342h317l166 -187h45l166 187h318z" glyph-name="Ncaron" horiz-adv-x="2019" unicode="Ň"/><glyph d="M90 0v1188h361v-193q248 215 669 215q307 0 466 -141t161 -451l-4 -618h-361v571q0 365 -362 365q-188 0 -357 -88t-212 -230v-618h-361zM729 1303l-321 342h317l166 -187h45l166 187h317l-321 -342h-369z" glyph-name="ncaron" horiz-adv-x="1835" unicode="ň"/><glyph d="M1579 1436h350v-1436q-4 -299 -120.5 -417t-405.5 -118h-385v293h264q174 0 233.5 52.5t63.5 189.5h-131l-1008 1047v-1047h-350v1436h490l999 -1037v1037z" glyph-name="Eng" horiz-adv-x="2019" unicode="Ŋ"/><glyph d="M451 0h-361v1188h361v-193q248 215 669 215q307 0 466 -141t161 -451l-2 -159h2l-4 -377v-82q-4 -295 -119 -404.5t-407 -109.5h-386v283h203q211 0 279.5 43t68.5 213v546q0 365 -362 365q-188 0 -357 -88t-212 -230v-618z" glyph-name="eng" horiz-adv-x="1835" unicode="ŋ"/><glyph d="M80 725q0 362 228.5 547.5t707.5 185.5q471 0 706.5 -186.5t235.5 -546.5q0 -358 -237.5 -553t-704.5 -195q-936 0 -936 748zM457 725q0 -233 140 -342t419 -109q283 0 424 109t141 342q0 227 -141.5 332.5t-423.5 105.5q-279 0 -419 -105.5t-140 -332.5zM1530 1516 h-1020l-2 268h1022v-268z" glyph-name="Omacron" unicode="Ō"/><glyph d="M932 -23q-393 0 -620.5 148.5t-227.5 466.5q0 618 848 618q862 0 862 -618q0 -164 -64.5 -284t-183.5 -191.5t-271.5 -105.5t-342.5 -34zM940 934q-240 0 -362.5 -76t-122.5 -260q0 -342 485 -342t485 342q0 184 -122.5 260t-362.5 76zM1450 1571v-268h-1020v268h1020z " glyph-name="omacron" horiz-adv-x="1873" unicode="ō"/><glyph d="M80 725q0 362 228.5 547.5t707.5 185.5q471 0 706.5 -186.5t235.5 -546.5q0 -358 -237.5 -553t-704.5 -195q-936 0 -936 748zM1016 1163q-279 0 -419 -105.5t-140 -332.5q0 -233 140 -342t419 -109q283 0 424 109t141 342q0 227 -141 332.5t-424 105.5zM805 1858h1050 l-501 -342h-273l166 260l-366 -260h-273z" glyph-name="Ohungarumlaut" unicode="Ő"/><glyph d="M84 592q0 618 848 618q862 0 862 -618q0 -164 -64.5 -284t-183.5 -191.5t-271.5 -105.5t-342.5 -34q-393 0 -620.5 149t-227.5 466zM940 934q-240 0 -362.5 -76t-122.5 -260q0 -342 485 -342t485 342q0 184 -122.5 260t-362.5 76zM750 1645h1048l-502 -342h-272l164 258 l-363 -258h-272z" glyph-name="ohungarumlaut" horiz-adv-x="1873" unicode="ő"/><glyph d="M1016 -23q-936 0 -936 748q0 362 228.5 547.5t707.5 185.5q358 0 581 -108v86h1543v-301h-1190v-269h1093v-295h-1093v-268h1190v-303h-1543v92q-223 -115 -581 -115zM1016 1163q-279 0 -419 -105.5t-140 -332.5q0 -233 140 -342t419 -109q283 0 424 109t141 342 q0 227 -141 332.5t-424 105.5z" glyph-name="OE" horiz-adv-x="3237" unicode="Œ"/><glyph d="M84 592q0 170 61.5 291t178 189.5t266 99t342.5 30.5q473 0 680 -174q219 182 657 182q195 0 342.5 -34.5t266 -112.5t178 -220.5t51.5 -344.5h-1297q29 -133 151 -188.5t329 -55.5q360 0 436 164h360q-35 -211 -255 -326t-572 -115q-416 0 -645 191q-219 -184 -682 -184 q-258 0 -441.5 57t-295 196.5t-111.5 354.5zM455 596q0 -342 485 -342t485 342q0 184 -122.5 260t-362.5 76t-362.5 -76t-122.5 -260zM2269 926q-430 0 -469 -221h932q-47 221 -463 221z" glyph-name="oe" horiz-adv-x="3186" unicode="œ"/><glyph d="M440 354v-354h-350v1436h1071q96 0 188.5 -25t184.5 -81t149.5 -167.5t57.5 -265.5q0 -332 -271 -471l279 -426h-418l-217 354h-674zM1077 1122h-637v-452h637q57 0 90 2t83 13t77 33.5t48.5 67.5t21.5 111q0 76 -28 125t-81 68.5t-98 25.5t-113 6zM1483 1858l-492 -342 h-334l238 342h588z" glyph-name="Racute" horiz-adv-x="1859" unicode="Ŕ"/><glyph d="M969 1210q522 0 522 -417h-361q0 143 -262 143q-305 0 -417 -277v-659h-361v1188h361v-168q211 190 518 190zM952 1303h-334l238 342h588z" glyph-name="racute" horiz-adv-x="1570" unicode="ŕ"/><glyph d="M440 354v-354h-350v1436h1071q96 0 188.5 -25t184.5 -81t149.5 -167.5t57.5 -265.5q0 -332 -271 -471l279 -426h-418l-217 354h-674zM440 1122v-452h637q57 0 90 2t83 13t77 33.5t48.5 67.5t21.5 111q0 76 -28 125t-81 68.5t-98 25.5t-113 6h-637zM905 -373h-18 q-90 0 -140.5 33t-50.5 129q0 92 50.5 125t140.5 33t141 -33t51 -123v-4q0 -309 -250 -309v86q70 0 76 63z" glyph-name="Rcommaaccent" horiz-adv-x="1859" unicode="Ŗ"/><glyph d="M451 0h-361v1188h361v-168q211 190 518 190q522 0 522 -417h-361q0 143 -262 143q-305 0 -417 -277v-659zM78 -211q0 92 51 125t139 33q90 0 141.5 -32t51.5 -124v-4q0 -309 -250 -309v86q70 0 76 63h-19q-90 0 -140 33t-50 129z" glyph-name="rcommaaccent" horiz-adv-x="1570" unicode="ŗ"/><glyph d="M90 0v1436h1071q96 0 188.5 -25t184.5 -81t149.5 -167.5t57.5 -265.5q0 -332 -271 -471l279 -426h-418l-217 354h-674v-354h-350zM1077 1122h-637v-452h637q57 0 90 2t83 13t77 33.5t48.5 67.5t21.5 111q0 76 -28 125t-81 68.5t-98 25.5t-113 6zM664 1516l-322 342h317 l166 -187h45l166 187h318l-322 -342h-368z" glyph-name="Rcaron" horiz-adv-x="1859" unicode="Ř"/><glyph d="M451 0h-361v1188h361v-168q211 190 518 190q522 0 522 -417h-361q0 143 -262 143q-305 0 -417 -277v-659zM612 1303l-321 342h317l166 -187h45l166 187h318l-322 -342h-369z" glyph-name="rcaron" horiz-adv-x="1570" unicode="ř"/><glyph d="M90 506h389q0 -119 120 -169t448 -50q279 0 387 32.5t108 112.5q0 84 -97 109.5t-439 42.5q-483 23 -679 118t-196 332q0 227 216 323.5t642 96.5t648.5 -117.5t222.5 -384.5h-390q0 115 -116.5 155t-405.5 40q-256 0 -347 -27.5t-91 -103.5t92 -102.5t404 -43.5 q143 -8 230 -14t196.5 -19.5t173 -32t131 -49t103.5 -72.5t58.5 -101.5t22.5 -137.5q0 -113 -43 -195.5t-116.5 -134t-190.5 -82t-245 -41.5t-300 -11q-233 0 -396 22.5t-290 79.5t-188.5 162.5t-61.5 261.5zM1634 1858l-491 -342h-334l238 342h587z" glyph-name="Sacute" horiz-adv-x="2000" unicode="Ś"/><glyph d="M946 -23q-154 0 -270.5 9.5t-238.5 37t-199.5 74.5t-127 130t-49.5 196h365q0 -98 109.5 -137t390.5 -39q182 0 271 10t120 32.5t31 67.5q0 66 -75 84.5t-386 36.5q-150 8 -244 17.5t-193.5 25t-155.5 40t-104.5 61t-68 90t-19.5 125.5q0 106 59.5 181t171 116t248 58 t316.5 17q147 0 255 -8t211 -33.5t166.5 -68.5t102.5 -115t39 -172h-364q0 76 -93.5 100.5t-336.5 24.5q-238 0 -324 -18.5t-86 -67.5q0 -29 14.5 -45t68.5 -29.5t136 -21.5t242 -21q385 -27 504 -55q221 -53 266 -205q12 -45 12 -100q0 -225 -190.5 -311.5t-573.5 -86.5z M1073 1303h-334l238 342h588z" glyph-name="sacute" horiz-adv-x="1771" unicode="ś"/><glyph d="M90 506h389q0 -119 120 -169t448 -50q279 0 387 32.5t108 112.5q0 84 -97 109.5t-439 42.5q-483 23 -679 118t-196 332q0 227 216 323.5t642 96.5t648.5 -117.5t222.5 -384.5h-390q0 115 -116.5 155t-405.5 40q-256 0 -347 -27.5t-91 -103.5t92 -102.5t404 -43.5 q143 -8 230 -14t196.5 -19.5t173 -32t131 -49t103.5 -72.5t58.5 -101.5t22.5 -137.5q0 -104 -37 -183t-100.5 -130t-163.5 -84t-214 -47t-261 -18l-35 -78h8q55 0 89 -1t86.5 -11.5t82 -29t52 -56t22.5 -91t-23.5 -91.5t-60.5 -58.5t-106.5 -30.5t-134 -13t-171.5 -3h-151 v176h166q121 0 168 10t47 45q0 41 -39 50.5t-174 9.5h-101l54 172q-422 8 -628 122.5t-206 401.5z" glyph-name="Scedilla" horiz-adv-x="2000" unicode="Ş"/><glyph d="M61 424h365q0 -98 109.5 -137t390.5 -39q182 0 271 10t120 32.5t31 67.5q0 66 -75 84.5t-386 36.5q-150 8 -244 17.5t-193.5 25t-155.5 40t-104.5 61t-68 90t-19.5 125.5q0 106 59.5 181t171 116t248 58t316.5 17q147 0 255 -8t211 -33.5t166.5 -68.5t102.5 -115t39 -172 h-364q0 76 -93.5 100.5t-336.5 24.5q-238 0 -324 -18.5t-86 -67.5q0 -29 14.5 -45t68.5 -29.5t136 -21.5t242 -21q385 -27 504 -55q221 -53 266 -205q12 -45 12 -100q0 -211 -167 -299t-499 -96l-32 -76h8q55 0 89 -1t86 -11.5t82 -29t52.5 -56t22.5 -91t-23.5 -91.5 t-60.5 -58.5t-106.5 -30.5t-134 -13t-171.5 -3h-151v176h165q121 0 168 10t47 45q0 41 -38.5 50.5t-174.5 9.5h-100l53 170q-170 4 -296 24.5t-237.5 67.5t-171 136t-59.5 216z" glyph-name="scedilla" horiz-adv-x="1771" unicode="ş"/><glyph d="M1026 -20q-233 0 -396 22.5t-290 79.5t-188.5 162.5t-61.5 261.5h389q0 -119 120 -169t448 -50q279 0 387 32.5t108 112.5q0 84 -97 109.5t-439 42.5q-483 23 -679 118t-196 332q0 227 216 323.5t642 96.5t648.5 -117.5t222.5 -384.5h-390q0 115 -116.5 155t-405.5 40 q-256 0 -347 -27.5t-91 -103.5t92 -102.5t404 -43.5q143 -8 230 -14t196.5 -19.5t173 -32t131 -49t103.5 -72.5t58.5 -101.5t22.5 -137.5q0 -113 -43 -195.5t-116.5 -134t-190.5 -82t-245 -41.5t-300 -11zM821 1516l-321 342h317l166 -187h45l166 187h317l-321 -342h-369z " glyph-name="Scaron" horiz-adv-x="2000" unicode="Š"/><glyph d="M946 -23q-154 0 -270.5 9.5t-238.5 37t-199.5 74.5t-127 130t-49.5 196h365q0 -98 109.5 -137t390.5 -39q182 0 271 10t120 32.5t31 67.5q0 66 -75 84.5t-386 36.5q-150 8 -244 17.5t-193.5 25t-155.5 40t-104.5 61t-68 90t-19.5 125.5q0 106 59.5 181t171 116t248 58 t316.5 17q147 0 255 -8t211 -33.5t166.5 -68.5t102.5 -115t39 -172h-364q0 76 -93.5 100.5t-336.5 24.5q-238 0 -324 -18.5t-86 -67.5q0 -29 14.5 -45t68.5 -29.5t136 -21.5t242 -21q385 -27 504 -55q221 -53 266 -205q12 -45 12 -100q0 -225 -190.5 -311.5t-573.5 -86.5z M702 1303l-321 342h317l166 -187h45l166 187h318l-322 -342h-369z" glyph-name="scaron" horiz-adv-x="1771" unicode="š"/><glyph d="M1898 1106h-739v-1106h-45l-43 -96h8q57 0 91 -1t86.5 -11.5t82 -29t52 -56t22.5 -91t-23.5 -91.5t-60.5 -58.5t-106.5 -30.5t-134 -13t-173.5 -3h-149v176h166q121 0 168 10t47 45q0 41 -39 50.5t-174 9.5h-103l62 190h-84v1106h-739v330h1828v-330z" glyph-name="Tcommaaccent" horiz-adv-x="1988" unicode="Ţ"/><glyph d="M383 922h-303v268h303v244h360v-244h603v-268h-603v-340q0 -188 40 -241.5t198 -53.5h365v-297h-367l-39 -86h8q57 0 91 -1t86.5 -11.5t82 -29t52 -56t22.5 -91t-23.5 -91.5t-60.5 -58.5t-106.5 -30.5t-134 -13t-173.5 -3h-149v176h166q121 0 168 10t47 45q0 41 -39 50.5 t-174 9.5h-103l60 182q-145 6 -223 48t-116 145.5t-38 295.5v441z" glyph-name="tcommaaccent" horiz-adv-x="1497" unicode="ţ"/><glyph d="M70 1436h1828v-330h-739v-1106h-350v1106h-739v330zM1018 1671l166 187h317l-321 -342h-369l-322 342h318l166 -187h45z" glyph-name="Tcaron" horiz-adv-x="1988" unicode="Ť"/><glyph d="M80 922v268h303v244h360v-244h603v-268h-603v-340q0 -188 40 -241.5t198 -53.5h365v-297h-506q-135 0 -215 17.5t-138.5 71.5t-81 149.5t-22.5 252.5v441h-303zM1407 985v451h326v-256l-191 -195h-135z" glyph-name="tcaron" horiz-adv-x="1787" unicode="ť"/><glyph d="M1159 743h342v-237h-342v-506h-350v506h-322v237h322v363h-739v330h1828v-330h-739v-363z" glyph-name="Tbar" horiz-adv-x="1988" unicode="Ŧ"/><glyph d="M383 688v234h-303v268h303v244h360v-244h603v-268h-603v-177h7l522 -135l-529 -84q4 -150 47.5 -194.5t190.5 -44.5h365v-297h-506q-135 0 -215 17.5t-138.5 71.5t-81 149.5t-22.5 252.5v90l-279 72z" glyph-name="tbar" horiz-adv-x="1497" unicode="ŧ"/><glyph d="M1554 727v709h365v-709q0 -750 -918 -750q-469 0 -690 187.5t-221 562.5v709h365v-709q0 -446 546 -446q553 0 553 446zM496 1516l-2 268h1022v-268h-1020z" glyph-name="Umacron" horiz-adv-x="2009" unicode="Ū"/><glyph d="M1384 1188h363v-1188h-363v193q-252 -215 -669 -216q-307 0 -465 142.5t-160 449.5l2 619h363v-572q0 -362 362 -362q188 0 357 87t210 230v617zM408 1571h1022v-268h-1020z" glyph-name="umacron" horiz-adv-x="1835" unicode="ū"/><glyph d="M90 727v709h365v-709q0 -446 546 -446q553 0 553 446v709h365v-709q0 -750 -918 -750q-469 0 -690 187.5t-221 562.5zM573 1817q0 125 101.5 202.5t329 77.5t329 -77.5t101.5 -202.5t-101.5 -203t-329 -78t-329 78t-101.5 203zM827 1816.5q0 -100.5 176.5 -100.5 t176.5 100.5t-176.5 100.5t-176.5 -100.5z" glyph-name="Uring" horiz-adv-x="2009" unicode="Ů"/><glyph d="M715 -23q-307 0 -465 142.5t-160 449.5l2 619h363v-572q0 -362 362 -362q188 0 357 87t210 230v617h363v-1188h-363v193q-251 -216 -669 -216zM919.5 1303q-227.5 0 -329 77.5t-101.5 202.5t101.5 203t329 78t329 -78t101.5 -203t-101.5 -202.5t-329 -77.5zM919.5 1683 q-176.5 0 -176.5 -100t176.5 -100t176.5 100t-176.5 100z" glyph-name="uring" horiz-adv-x="1835" unicode="ů"/><glyph d="M1554 727v709h365v-709q0 -750 -918 -750q-469 0 -690 187.5t-221 562.5v709h365v-709q0 -446 546 -446q553 0 553 446zM874 1516h-272l197 342h1050l-501 -342h-273l166 260z" glyph-name="Uhungarumlaut" horiz-adv-x="2009" unicode="Ű"/><glyph d="M715 -23q-307 0 -465 142.5t-160 449.5l2 619h363v-572q0 -362 362 -362q188 0 357 87t210 230v617h363v-1188h-363v193q-251 -216 -669 -216zM1167 1561l-362 -258h-273l197 342h1049l-502 -342h-272z" glyph-name="uhungarumlaut" horiz-adv-x="1835" unicode="ű"/><glyph d="M1554 1436h365v-709q0 -705 -815 -747q-70 -57 -70 -107q0 -66 79 -82t245 -16v-246q-334 0 -462 43t-128 186q0 127 133 222q-418 20 -614.5 206.5t-196.5 540.5v709h365v-709q0 -446 546 -446q553 0 553 446v709z" glyph-name="Uogonek" horiz-adv-x="2009" unicode="Ų"/><glyph d="M715 -23q-307 0 -465 142.5t-160 449.5l2 619h363v-572q0 -362 362 -362q188 0 357 87t210 230v617h363v-1188h-125q-25 -20 -34 -28.5t-27.5 -27t-25.5 -36t-7 -35.5q0 -66 79 -82t244 -16v-246q-334 0 -461.5 43t-127.5 186q0 137 161 242h-39v193q-251 -216 -669 -216 z" glyph-name="uogonek" horiz-adv-x="1835" unicode="ų"/><glyph d="M702 0l-622 1436h375l432 -1014l450 1014h385l453 -1008l430 1008h375l-619 -1436h-368l-461 1004l-461 -1004h-369zM1501 1702l-166 -186h-317l321 342h369l322 -342h-318l-166 186h-45z" glyph-name="Wcircumflex" horiz-adv-x="3059" unicode="Ŵ"/><glyph d="M623 0l-543 1188h385l377 -858l405 858h357l405 -858l377 858h385l-543 -1188h-416l-387 809l-387 -809h-415zM1237 1303h-317l321 342h369l321 -342h-317l-166 186h-45z" glyph-name="wcircumflex" horiz-adv-x="2852" unicode="ŵ"/><glyph d="M862 0v446l-782 990h430l534 -672l533 672h430l-784 -990v-446h-361zM856 1858h369l321 -342h-317l-166 186h-45l-166 -186h-317z" glyph-name="Ycircumflex" horiz-adv-x="2086" unicode="Ŷ"/><glyph d="M877 0h-113l-688 1188h418l505 -871l459 871h420l-700 -1307q-133 -248 -257 -321.5t-399 -73.5h-205v293h86q225 0 314.5 40t159.5 181zM784 1303h-317l321 342h369l322 -342h-318l-166 186h-45z" glyph-name="ycircumflex" horiz-adv-x="1953" unicode="ŷ"/><glyph d="M862 0v446l-782 990h430l534 -672l533 672h430l-784 -990v-446h-361zM772 1516q-90 0 -140 32.5t-50 128.5q0 94 50 127t140 33t141.5 -32.5t51.5 -127t-51.5 -128t-141.5 -33.5zM1296 1837q90 0 141.5 -32.5t51.5 -127t-51.5 -128t-141.5 -33.5t-140 32.5t-50 128.5 q0 94 50 127t140 33z" glyph-name="Ydieresis" horiz-adv-x="2086" unicode="Ÿ"/><glyph d="M592 301h1106v-301h-1624v332l1114 803h-1114v301h1624v-334zM985 1516h-334l238 342h588z" glyph-name="Zacute" horiz-adv-x="1787" unicode="Ź"/><glyph d="M678 295h895v-295h-1481l-2 295l895 600h-895v293h1483v-293zM1446 1645l-492 -342h-333l237 342h588z" glyph-name="zacute" horiz-adv-x="1662" unicode="ź"/><glyph d="M592 301h1106v-301h-1624v332l1114 803h-1114v301h1624v-334zM885 1516q-90 0 -140.5 32.5t-50.5 128.5q0 94 50.5 127t140.5 33t141 -32.5t51 -127.5q0 -96 -51 -128.5t-141 -32.5z" glyph-name="Zdotaccent" horiz-adv-x="1787" unicode="Ż"/><glyph d="M90 1188h1483v-293l-895 -600h895v-295h-1481l-2 295l895 600h-895v293zM831.5 1303q-90.5 0 -140.5 32.5t-50 128.5q0 94 50 127t140.5 33t141.5 -32.5t51 -127.5q0 -96 -51 -128.5t-141.5 -32.5z" glyph-name="zdotaccent" horiz-adv-x="1662" unicode="ż"/><glyph d="M1698 0h-1624v332l1114 803h-1114v301h1624v-334l-1106 -801h1106v-301zM1059 1516h-369l-321 342h317l166 -187h45l166 187h317z" glyph-name="Zcaron" horiz-adv-x="1787" unicode="Ž"/><glyph d="M90 895v293h1483v-293l-895 -600h895v-295h-1481l-2 295l895 600h-895zM647 1303l-321 342h317l166 -187h45l166 187h317l-321 -342h-369z" glyph-name="zcaron" horiz-adv-x="1662" unicode="ž"/><glyph d="M90 506h389q0 -119 120 -169t448 -50q279 0 387 32.5t108 112.5q0 84 -97 109.5t-439 42.5q-483 23 -679 118t-196 332q0 227 216 323.5t642 96.5t648.5 -117.5t222.5 -384.5h-390q0 115 -116.5 155t-405.5 40q-256 0 -347 -27.5t-91 -103.5t92 -102.5t404 -43.5 q143 -8 230 -14t196.5 -19.5t173 -32t131 -49t103.5 -72.5t58.5 -101.5t22.5 -137.5q0 -113 -43 -195.5t-116.5 -134t-190.5 -82t-245 -41.5t-300 -11q-233 0 -396 22.5t-290 79.5t-188.5 162.5t-61.5 261.5zM864 -211q0 92 51.5 125t139.5 33q90 0 141 -32t51 -124v-4 q0 -309 -250 -309v86q70 0 76 63h-18q-90 0 -140.5 33t-50.5 129z" glyph-name="Scommaaccent" horiz-adv-x="2000" unicode="Ș"/><glyph d="M946 -23q-154 0 -270.5 9.5t-238.5 37t-199.5 74.5t-127 130t-49.5 196h365q0 -98 109.5 -137t390.5 -39q182 0 271 10t120 32.5t31 67.5q0 66 -75 84.5t-386 36.5q-150 8 -244 17.5t-193.5 25t-155.5 40t-104.5 61t-68 90t-19.5 125.5q0 106 59.5 181t171 116t248 58 t316.5 17q147 0 255 -8t211 -33.5t166.5 -68.5t102.5 -115t39 -172h-364q0 76 -93.5 100.5t-336.5 24.5q-238 0 -324 -18.5t-86 -67.5q0 -29 14.5 -45t68.5 -29.5t136 -21.5t242 -21q385 -27 504 -55q221 -53 266 -205q12 -45 12 -100q0 -225 -190.5 -311.5t-573.5 -86.5z M944 -373h-18q-90 0 -140.5 33t-50.5 129q0 92 51.5 125t139.5 33q90 0 141 -32t51 -124v-4q0 -309 -250 -309v86q70 0 76 63z" glyph-name="scommaaccent" horiz-adv-x="1771" unicode="ș"/><glyph d="M70 1436h1828v-330h-739v-1106h-350v1106h-739v330zM1237 -188v-5q0 -309 -250 -309v86q70 0 76 64h-19q-90 0 -140 32.5t-50 129.5q0 92 51 124.5t139 32.5q90 0 141.5 -31.5t51.5 -123.5z" glyph-name="uni021A" horiz-adv-x="1988" unicode="Ț"/><glyph d="M383 922h-303v268h303v244h360v-244h603v-268h-603v-340q0 -188 40 -241.5t198 -53.5h365v-297h-506q-135 0 -215 17.5t-138.5 71.5t-81 149.5t-22.5 252.5v441zM745 -190q0 92 51.5 124.5t139.5 32.5q90 0 141 -31.5t51 -123.5v-5q0 -309 -249 -309v86q70 0 75 64h-18 q-90 0 -140.5 33t-50.5 129z" glyph-name="uni021B" horiz-adv-x="1497" unicode="ț"/><glyph d="M381 1516h-318l322 342h369l321 -342h-317l-166 186h-45z" glyph-name="circumflex" horiz-adv-x="1134" unicode="ˆ"/><glyph d="M752 1516h-369l-322 342h318l166 -187h45l166 187h317z" glyph-name="caron" horiz-adv-x="1134" unicode="ˇ"/><glyph d="M588 1516q-215 0 -335 77.5t-120 278.5h246q0 -156 209 -156t209 156h245q0 -201 -119.5 -278.5t-334.5 -77.5z" glyph-name="breve" horiz-adv-x="1175" unicode="˘"/><glyph d="M104 1677q0 94 50.5 127t140.5 33t141 -32.5t51 -127t-51 -128t-141 -33.5t-140.5 32.5t-50.5 128.5z" glyph-name="dotaccent" horiz-adv-x="589" unicode="˙"/><glyph d="M123 1817q0 125 101.5 202.5t328.5 77.5t328.5 -77.5t101.5 -202.5t-101.5 -203t-328.5 -78t-328.5 78t-101.5 203zM377 1816.5q0 -100.5 176 -100.5t176 100.5t-176 100.5t-176 -100.5z" glyph-name="ring" horiz-adv-x="1105" unicode="˚"/><glyph d="M713 -225v-246q-334 0 -462 43t-128 186q0 137 162 242h198q-25 -20 -34 -28.5t-27.5 -27t-25.5 -36t-7 -35.5q0 -66 79 -82t245 -16z" glyph-name="ogonek" horiz-adv-x="835" unicode="˛"/><glyph d="M430 1536h-307q0 211 60.5 315.5t246.5 104.5q86 0 155.5 -29t107.5 -63.5t88 -63t100 -28.5q123 0 123 174h307q0 -211 -60.5 -315.5t-246.5 -104.5q-84 0 -154 28.5t-106.5 63.5t-87 63.5t-103.5 28.5q-123 0 -123 -174z" glyph-name="tilde" horiz-adv-x="1433" unicode="˜"/><glyph d="M803 1776l-367 -260h-272l196 342h1051l-502 -342h-272z" glyph-name="hungarumlaut" horiz-adv-x="1370" unicode="˝"/><glyph d="M-637 1458l-491 342h587l238 -342h-334z" glyph-name="gravecomb" horiz-adv-x="0" unicode="̀"/><glyph d="M-549 1458h-334l238 342h588z" glyph-name="acutecomb" horiz-adv-x="0" unicode="́"/><glyph d="M-735 1372h-318l322 342h369l321 -342h-317l-166 187h-45z" glyph-name="uni0302" horiz-adv-x="0" unicode="̂"/><glyph d="M-1006 1362h-307q0 211 60.5 315.5t246.5 104.5q84 0 155 -29t108.5 -63.5t87 -63.5t100.5 -29q123 0 123 175h307q0 -211 -60.5 -315.5t-246.5 -104.5q-84 0 -153.5 28.5t-106.5 63.5t-87 63.5t-104 28.5q-123 0 -123 -174z" glyph-name="tildecomb" horiz-adv-x="0" unicode="̃"/><glyph d="M-1112 1395l-2 266h1022v-266h-1020z" glyph-name="uni0304" horiz-adv-x="0" unicode="̄"/><glyph d="M-588 1341q-215 0 -334.5 78t-119.5 279h245q0 -156 209 -156t209 156h246q0 -201 -120 -279t-335 -78z" glyph-name="uni0306" horiz-adv-x="0" unicode="̆"/><glyph d="M-553 1636q0 94 50 127t140.5 33t141.5 -32.5t51 -127.5q0 -96 -51 -128.5t-141.5 -32.5t-140.5 32.5t-50 128.5z" glyph-name="uni0307" horiz-adv-x="0" unicode="̇"/><glyph d="M-438 1636q0 94 50 127t140 33t141.5 -32.5t51.5 -127.5q0 -96 -51.5 -128.5t-141.5 -32.5t-140 32.5t-50 128.5zM-963 1636q0 94 50.5 127t140.5 33t141 -32.5t51 -127.5q0 -96 -51 -128.5t-141 -32.5t-140.5 32.5t-50.5 128.5z" glyph-name="uni0308" horiz-adv-x="0" unicode="̈"/><glyph d="M-983 1632q0 125 101.5 203t328.5 78t328.5 -78t101.5 -203t-101.5 -202.5t-328.5 -77.5t-328.5 77.5t-101.5 202.5zM-729 1632.5q0 -100.5 176 -100.5t176 100.5t-176 100.5t-176 -100.5z" glyph-name="uni030A" horiz-adv-x="0" unicode="̊"/><glyph d="M-573 1753l-363 -258h-272l196 342h1051l-504 -342h-272z" glyph-name="uni030B" horiz-adv-x="0" unicode="̋"/><glyph d="M-365 1376h-368l-322 342h318l166 -186h45l166 186h317z" glyph-name="uni030C" horiz-adv-x="0" unicode="̌"/><glyph d="M-530 1542v4q0 309 249 309v-86q-70 0 -75 -63h18q90 0 140.5 -33t50.5 -129q0 -94 -50.5 -127t-140.5 -33t-141 33t-51 125z" glyph-name="uni0312" horiz-adv-x="0" unicode="̒"/><glyph d="M-219 -375h-19q-90 0 -140 33t-50 129q0 94 50 127t140.5 33t141.5 -33t51 -125v-4q0 -309 -250 -309v86q70 0 76 63z" glyph-name="uni0326" horiz-adv-x="0" unicode="̦"/><glyph d="M-801 -481v176h166q121 0 168 10t47 45q0 41 -39 50.5t-174 9.5h-100l59 190h223l-43 -96h9q55 0 89 -1t86 -11.5t81.5 -29t52 -56t22.5 -91t-23.5 -91.5t-60 -58.5t-106.5 -30.5t-134.5 -13t-170.5 -3h-152z" glyph-name="uni0327" horiz-adv-x="0" unicode="̧"/><glyph d="M-125 -225v-246q-334 0 -462 43t-128 186q0 137 162 242h199q-25 -20 -34 -28.5t-27.5 -27t-26 -36t-7.5 -35.5q0 -66 79 -82t245 -16z" glyph-name="uni0328" horiz-adv-x="0" unicode="̨"/><glyph d="M-106 573h-1020v269h1020v-269z" glyph-name="uni0335" horiz-adv-x="0" unicode="̵"/><glyph d="M-121 502h-2048v332h2048v-332z" glyph-name="uni0336" horiz-adv-x="0" unicode="̶"/><glyph d="M-635 -307h-358l553 1782h358z" glyph-name="uni0337" horiz-adv-x="0" unicode="̷"/><glyph d="M-696 -307h-287l553 1782h287z" glyph-name="uni0338" horiz-adv-x="0" unicode="̸"/><glyph d="M1722 1436l453 -1008l430 1008h375l-619 -1436h-368l-461 1004l-461 -1004h-369l-622 1436h375l432 -1014l450 1014h385zM1688 1516h-334l-492 342h588z" glyph-name="Wgrave" horiz-adv-x="3059" unicode="Ẁ"/><glyph d="M1604 1188l405 -858l377 858h385l-543 -1188h-416l-387 809l-387 -809h-415l-543 1188h385l377 -858l405 858h357zM1581 1303h-334l-491 342h587z" glyph-name="wgrave" horiz-adv-x="2852" unicode="ẁ"/><glyph d="M1722 1436l453 -1008l430 1008h375l-619 -1436h-368l-461 1004l-461 -1004h-369l-622 1436h375l432 -1014l450 1014h385zM2189 1858l-491 -342h-334l238 342h587z" glyph-name="Wacute" horiz-adv-x="3059" unicode="Ẃ"/><glyph d="M1604 1188l405 -858l377 858h385l-543 -1188h-416l-387 809l-387 -809h-415l-543 1188h385l377 -858l405 858h357zM2099 1645l-491 -342h-334l237 342h588z" glyph-name="wacute" horiz-adv-x="2852" unicode="ẃ"/><glyph d="M1071 0h-369l-622 1436h375l432 -1014l450 1014h385l453 -1008l430 1008h375l-619 -1436h-368l-461 1004zM1591 1677q0 94 50.5 127t140.5 33t141 -32.5t51 -127.5q0 -96 -51 -128.5t-141 -32.5t-140.5 32.5t-50.5 128.5zM1257.5 1516q-90.5 0 -140.5 32.5t-50 128.5 q0 94 50 127t140.5 33t141.5 -32.5t51 -127.5q0 -96 -51 -128.5t-141.5 -32.5z" glyph-name="Wdieresis" horiz-adv-x="3059" unicode="Ẅ"/><glyph d="M1038 0h-415l-543 1188h385l377 -858l405 858h357l405 -858l377 858h385l-543 -1188h-416l-387 809zM1687.5 1303q-90.5 0 -140.5 32.5t-50 128.5q0 94 50 127t140.5 33t141.5 -32.5t51 -127t-51 -128t-141.5 -33.5zM973 1464q0 94 50 127t140 33t141.5 -32.5t51.5 -127 t-51.5 -128t-141.5 -33.5t-140 32.5t-50 128.5z" glyph-name="wdieresis" horiz-adv-x="2852" unicode="ẅ"/><glyph d="M1044 764l533 672h430l-784 -990v-446h-361v446l-782 990h430zM1202 1516h-334l-491 342h588z" glyph-name="Ygrave" horiz-adv-x="2086" unicode="Ỳ"/><glyph d="M1458 1188h420l-700 -1307q-133 -248 -257 -321.5t-399 -73.5h-205v293h86q225 0 314.5 40t159.5 181h-113l-688 1188h418l505 -871zM791 1303l-492 342h588l237 -342h-333z" glyph-name="ygrave" horiz-adv-x="1953" unicode="ỳ"/><glyph d="M2171 502h-2048v332h2048v-332z" glyph-name="endash" horiz-adv-x="2293" unicode="–"/><glyph d="M2580 502h-2457v332h2457v-332z" glyph-name="emdash" horiz-adv-x="2703" unicode="—"/><glyph d="M20 1341v5q0 309 250 309v-86q-70 0 -75 -64h18q90 0 140 -32.5t50 -129.5q0 -92 -51 -124.5t-139 -32.5q-90 0 -141.5 31.5t-51.5 123.5z" glyph-name="quoteleft" horiz-adv-x="524" unicode="‘"/><glyph d="M332 1436h-19q-90 0 -140 32.5t-50 128.5q0 92 50 125t140 33t141.5 -32.5t51.5 -123.5v-4q0 -309 -250 -309v86q70 1 76 64z" glyph-name="quoteright" horiz-adv-x="524" unicode="’"/><glyph d="M332 0h-19q-90 0 -140 33t-50 129q0 94 50 127t140 33t141.5 -33t51.5 -125v-4q0 -309 -250 -310v87q70 0 76 63z" glyph-name="quotesinglbase" horiz-adv-x="524" unicode="‚"/><glyph d="M20 1341v5q0 309 250 309v-86q-70 0 -75 -64h18q90 0 140 -32.5t50 -129.5q0 -92 -51 -124.5t-139 -32.5q-90 0 -141.5 31.5t-51.5 123.5zM893 1343q0 -92 -51 -124.5t-140 -32.5q-90 0 -141 31.5t-51 123.5v5q0 309 250 309v-86q-70 0 -76 -64h18q90 0 140.5 -33 t50.5 -129z" glyph-name="quotedblleft" horiz-adv-x="1013" unicode="“"/><glyph d="M332 1436h-19q-90 0 -140 32.5t-50 128.5q0 92 50 125t140 33t141.5 -32.5t51.5 -123.5v-4q0 -309 -250 -309v86q70 1 76 64zM821 1436h-18q-90 0 -140.5 32.5t-50.5 128.5q0 92 50.5 125t140.5 33t141 -32.5t51 -123.5v-4q0 -309 -250 -309v86q70 1 76 64z" glyph-name="quotedblright" horiz-adv-x="1013" unicode="”"/><glyph d="M332 0h-19q-90 0 -140 33t-50 129q0 94 50 127t140 33t141.5 -33t51.5 -125v-4q0 -309 -250 -310v87q70 0 76 63zM821 0h-18q-90 0 -140.5 33t-50.5 129q0 94 50.5 127t140.5 33t141 -33t51 -125v-4q0 -309 -250 -310v87q70 0 76 63z" glyph-name="quotedblbase" horiz-adv-x="1013" unicode="„"/><glyph d="M119 702v293h592v441h356v-441h588v-293h-588v-1009h-356v1009h-592z" glyph-name="dagger" horiz-adv-x="1773" unicode="†"/><glyph d="M711 -307v463h-592v290h592v256h-592v293h592v441h356v-441h588v-293h-588v-256h588v-290h-588v-463h-356z" glyph-name="daggerdbl" horiz-adv-x="1773" unicode="‡"/><glyph d="M346 629q0 80 16.5 135t34 73.5t31.5 18.5q12 0 29.5 -18.5t34 -73.5t16.5 -135q0 -76 -16.5 -134.5t-34 -81t-29.5 -22.5q-14 0 -31.5 22.5t-34 80t-16.5 135.5z" glyph-name="bullet" horiz-adv-x="854" unicode="•"/><glyph d="M1155 162q0 94 50 127t140.5 33t141.5 -33t51 -127q0 -96 -51 -129t-141.5 -33t-140.5 33t-50 129zM819 0q-90 0 -140 33t-50 129q0 94 50 127t140 33t141.5 -33t51.5 -127q0 -96 -51.5 -129t-141.5 -33zM102 162q0 94 50.5 127t140.5 33t141 -33t51 -127q0 -96 -51 -129 t-141 -33t-140.5 33t-50.5 129z" glyph-name="ellipsis" horiz-adv-x="1640" unicode="…"/><glyph d="M3287 899q240 0 374 -124t134 -326q0 -190 -136 -319.5t-371.5 -129.5t-369 129t-133.5 320q0 203 131 326.5t371 123.5zM115 985q0 203 131 327t370.5 124t373.5 -124t134 -327q0 -190 -136 -319t-371.5 -129t-368.5 129t-133 319zM2164.5 0q-235.5 0 -368.5 129 t-133 320q0 203 131 326.5t370.5 123.5t374 -124t134.5 -326q0 -190 -136.5 -319.5t-372 -129.5zM856 0h-428l1507 1436h428zM1946 449q0 -113 67.5 -165.5t151.5 -52.5q90 0 157.5 52.5t67.5 165.5q0 115 -67.5 167t-157.5 52q-86 0 -152.5 -52t-66.5 -167zM397 985 q0 -113 67.5 -165t151.5 -52q90 0 158 52t68 165q0 115 -67.5 167t-158.5 52q-86 0 -152.5 -52t-66.5 -167zM3287 231q90 0 158.5 52.5t68.5 165.5q0 115 -67.5 167t-159.5 52q-84 0 -150.5 -52.5t-66.5 -166.5q0 -111 66.5 -164.5t150.5 -53.5z" glyph-name="perthousand" horiz-adv-x="3905" unicode="‰"/><glyph d="M590 0l-486 543v104l486 541h430l-533 -594l533 -594h-430z" glyph-name="guilsinglleft" horiz-adv-x="1101" unicode="‹"/><glyph d="M84 0l532 594l-532 594h430l485 -541v-104l-485 -543h-430z" glyph-name="guilsinglright" horiz-adv-x="1101" unicode="›"/><glyph d="M463 -307h-375l584 1782h372z" glyph-name="fraction" horiz-adv-x="1124" unicode="⁄"/><glyph d="M1104 303h483v-303h-504q-371 0 -567.5 110.5t-257.5 333.5h-147v218h116q-2 18 -2 55q0 41 2 59h-116v219h147q63 225 259 333t566 108h504v-301h-483q-342 0 -440 -140h634v-219h-698q-2 -18 -2 -59q0 -37 2 -55h698v-218h-634q43 -63 126.5 -96t149.5 -39t164 -6z" glyph-name="Euro" horiz-adv-x="1697" unicode="€"/><glyph d="M887 940h-135v496h174l204 -336l203 336h176v-496h-137v313l-192 -313h-103l-190 313v-313zM336 940v373h-244v123h633v-123h-244v-373h-145z" glyph-name="trademark" horiz-adv-x="1599" unicode="™"/><glyph d="M111 727q0 365 235.5 549t687.5 184q469 0 690.5 -181t221.5 -552t-221.5 -552t-690.5 -181q-453 0 -688 184t-235 549zM934 590h717v276h-719l223 226l-194 194l-558 -559l558 -557l194 197z" glyph-name="arrowleft" horiz-adv-x="2054" unicode="←"/><glyph d="M111 713q0 371 235.5 559t687.5 188q469 0 690.5 -185t221.5 -562q0 -365 -221.5 -542t-690.5 -177q-455 0 -689 179.5t-234 539.5zM1167 780l224 -221l194 195l-557 557l-557 -557l195 -195l225 223v-626h276v624z" glyph-name="arrowup" horiz-adv-x="2054" unicode="↑"/><glyph d="M111 713q0 371 235.5 559t687.5 188q469 0 690.5 -185t221.5 -562q0 -365 -221.5 -542t-690.5 -177q-455 0 -689 179.5t-234 539.5zM930 367l194 -197l557 557l-557 559l-194 -196l223 -226h-719v-274h717z" glyph-name="arrowright" horiz-adv-x="2054" unicode="→"/><glyph d="M111 727q0 365 235.5 549t687.5 184q469 0 690.5 -181t221.5 -552t-221.5 -552t-690.5 -181q-453 0 -688 184t-235 549zM1028 145l557 557l-194 195l-224 -223v626h-276v-628l-225 225l-195 -195z" glyph-name="arrowdown" horiz-adv-x="2054" unicode="↓"/><glyph d="M1405 1090l194 196l558 -559l-555 -557l-197 197l223 223h-989l223 -223l-196 -197l-555 557l557 559l194 -196l-225 -226h993z" glyph-name="arrowboth" horiz-adv-x="2267" unicode="↔"/><glyph d="M809 274l223 224l197 -197l-557 -557l-559 559l196 195l223 -226v637l-223 -225l-196 195l559 557l557 -555l-197 -197l-223 223v-633z" glyph-name="arrowupdn" horiz-adv-x="1339" unicode="↕"/><glyph d="M1034 -6q-453 0 -688 184t-235 549t235.5 549t687.5 184q469 0 690.5 -181t221.5 -552t-221.5 -552t-690.5 -181zM1069 887h317v276l-788 -2v-786h276v315l443 -442l194 194z" glyph-name="uni2196" horiz-adv-x="2226" unicode="↖"/><glyph d="M111 713q0 371 235.5 559t687.5 188q469 0 690.5 -185t221.5 -562q0 -365 -221.5 -542t-690.5 -177q-455 0 -689 179.5t-234 539.5zM1182 375h276v786l-790 2l2 -276h317l-444 -445l196 -194l441 442z" glyph-name="uni2197" horiz-adv-x="2054" unicode="↗"/><glyph d="M111 713q0 371 235.5 559t687.5 188q469 0 690.5 -185t221.5 -562q0 -365 -221.5 -542t-690.5 -177q-455 0 -689 179.5t-234 539.5zM670 293h786l2 788h-276v-317l-445 442l-194 -194l442 -443h-315v-276z" glyph-name="uni2198" horiz-adv-x="2054" unicode="↘"/><glyph d="M1034 -6q-453 0 -688 184t-235 549t235.5 549t687.5 184q469 0 690.5 -181t221.5 -552t-221.5 -552t-690.5 -181zM621 313h788l-2 277h-315l442 442l-195 197l-444 -445v318h-277z" glyph-name="uni2199" horiz-adv-x="2054" unicode="↙"/><glyph d="M102 569q0 272 167 425t522 153q246 0 425 -80t279 -211q-8 111 -46 196t-108.5 142t-149.5 95t-199 60.5t-227.5 33t-260.5 18.5l20 319q236 -12 425.5 -45t365.5 -102.5t295 -173t189.5 -263t70.5 -366.5t-81 -363.5t-219 -247.5t-306 -135t-359 -44q-803 -1 -803 589z M481 569q0 -145 98.5 -213.5t305.5 -68.5q408 0 549 237q-125 158 -289 237t-318 79q-346 -1 -346 -271z" glyph-name="partialdiff" horiz-adv-x="1972" unicode="∂"/><glyph d="M213 -256l223 319q-352 143 -352 529q0 170 61.5 291t178 189.5t266 99t342.5 30.5q162 0 291 -20l180 256h270l-221 -316q342 -139 342 -530q0 -164 -64.5 -283t-183.5 -189.5t-271.5 -103t-342.5 -32.5q-141 0 -266 18l-181 -258h-272zM455 596q0 -201 159 -281 l430 613q-66 4 -104 4q-240 0 -362.5 -76t-122.5 -260zM1276 870l-430 -612q61 -4 94 -4q485 0 485 342q1 198 -149 274z" glyph-name="emptyset" horiz-adv-x="1873" unicode="∅"/><glyph d="M113 1135v301h2015v-301h-410v-1444h-352v1444h-489v-1444h-353v1444h-411z" glyph-name="product" horiz-adv-x="2240" unicode="∏"/><glyph d="M113 -8l706 604l-706 602v299h1474v-299h-1034l707 -602l-707 -604h1034v-299h-1474v299z" glyph-name="summation" horiz-adv-x="1699" unicode="∑"/><glyph d="M1599 561h-1456v330h1456v-330z" glyph-name="minus" horiz-adv-x="1740" unicode="−"/><glyph d="M543 399h-430v299h694l305 -702l518 1563h797v-299h-514l-539 -1567h-518z" glyph-name="radical" horiz-adv-x="2539" unicode="√"/><glyph d="M1933 1192q256 0 419 -160t163 -420q0 -264 -161 -417.5t-421 -153.5q-381 0 -620 352q-123 -180 -272.5 -266t-346.5 -86q-262 0 -421.5 153.5t-159.5 417.5q0 258 163.5 419t417.5 161q381 0 621 -356q239 356 618 356zM1892 885q-256 0 -405 -273q143 -264 405 -264 q115 0 200 63.5t85 200.5q0 135 -87 204t-198 69zM451 612q0 -137 85 -200.5t199 -63.5q258 0 404 266q-150 270 -404 271q-111 0 -197.5 -69t-86.5 -204z" glyph-name="infinity" horiz-adv-x="2625" unicode="∞"/><glyph d="M119 -309v301h65q76 0 122 5t104.5 26.5t90 62.5t53 118t17.5 187l-18 510q-4 100 4 185t29.5 149.5t47 117t67.5 89.5t80 64.5t96.5 44t102.5 26.5t112.5 15t114.5 6t118 1h59v-301h-65q-61 0 -102 -3t-92.5 -15t-83 -39t-60.5 -69t-41 -110.5t-10 -160.5l20 -510 q4 -113 -8 -205t-33.5 -159.5t-61.5 -120.5t-79 -88t-100.5 -59.5t-109.5 -38t-123 -20.5t-126 -8t-131 -1h-59z" glyph-name="integral" horiz-adv-x="1501" unicode="∫"/><glyph d="M1032 662h248q35 -442 -289 -443q-84 0 -157.5 30t-117.5 66.5t-102.5 66.5t-117.5 30q-82 0 -106.5 -38t-24.5 -155h-250q-35 442 291 443q84 0 157.5 -31t117.5 -67t102.5 -66.5t117.5 -30.5q82 0 106.5 38t24.5 157zM1032 1186h248q35 -442 -289 -443q-84 0 -157.5 30 t-117.5 67t-102.5 66.5t-117.5 29.5q-82 0 -106.5 -38t-24.5 -155h-250q-35 442 291 443q84 0 157.5 -31t117.5 -66.5t102.5 -66.5t117.5 -31q82 0 106.5 38t24.5 157z" glyph-name="approxequal" horiz-adv-x="1394" unicode="≈"/><glyph d="M150 193v331h632l129 363h-761v330h880l78 219h344l-78 -219h516v-330h-633l-129 -363h762v-331h-880l-70 -197h-346l70 197h-514z" glyph-name="notequal" horiz-adv-x="2039" unicode="≠"/><glyph d="M1565 350l-1454 293v502l1454 291v-318l-1166 -221v-8l1166 -221v-318zM1565 0h-1454v260h1454v-260z" glyph-name="lessequal" horiz-adv-x="1675" unicode="≤"/><glyph d="M1565 643l-1454 -293v318l1165 221v8l-1165 221v318l1454 -291v-502zM111 0v260h1454v-260h-1454z" glyph-name="greaterequal" horiz-adv-x="1675" unicode="≥"/><glyph d="M1184 -236h-488l-583 918l583 917h488l581 -917zM940 1389l-463 -707l463 -713l457 713z" glyph-name="lozenge" horiz-adv-x="1875" unicode="◊"/><glyph d="M80 717q0 360 235.5 550.5t706.5 190.5q936 0 936 -741q0 -731 -936 -731q-471 0 -706.5 187.5t-235.5 543.5z" glyph-name="H18533" unicode="●"/><glyph d="M57 1047q0 186 121 299.5t320 113.5q209 0 338 -130t129 -363q0 -150 -42 -283t-128 -246.5t-239 -180.5t-355 -67v297q301 0 397 236q-80 -29 -176 -29q-162 0 -263.5 95.5t-101.5 257.5z" glyph-name="uni275C" horiz-adv-x="1032" unicode="❜"/><glyph d="M57 1047q0 186 121 299.5t320 113.5q209 0 338 -130t129 -363q0 -150 -42 -283t-128 -246.5t-239 -180.5t-355 -67v297q301 0 397 236q-80 -29 -176 -29q-162 0 -263.5 95.5t-101.5 257.5zM1538 723q-80 -29 -176 -29q-162 0 -263.5 95.5t-101.5 257.5q0 186 121 299.5 t320 113.5q209 0 338 -130t129 -363q0 -150 -42 -283t-128 -246.5t-239 -180.5t-355 -67v297q301 0 397 236z" glyph-name="uni275E" horiz-adv-x="1972" unicode="❞"/><glyph d="M74 717q0 360 236.5 550.5t705.5 190.5q936 0 936 -741q0 -731 -936 -731q-469 0 -705.5 187.5t-236.5 543.5zM612 291h803v184h-282v678h-218q0 -53 -19 -90t-45 -55.5t-74 -28.5t-78.5 -11t-88.5 -1l2 -185h308l-2 -307h-306v-184z" glyph-name="uni278A" unicode="➊"/><glyph d="M1022 -14q-471 0 -706.5 187t-235.5 544q0 360 235.5 550.5t706.5 190.5q936 0 936 -741q0 -731 -936 -731zM539 289h952v182h-698q27 41 110.5 65.5t181 41t191.5 41t156.5 84t62.5 153.5q0 135 -108.5 218t-346.5 83q-471 0 -471 -350h224q0 86 55 132t199 46 q137 0 188 -31.5t51 -91.5q0 -47 -55 -79.5t-138 -48t-180.5 -41t-180.5 -56.5t-138 -96.5t-55 -157.5v-94z" glyph-name="uni278B" unicode="➋"/><glyph d="M80 717q0 360 235.5 550.5t706.5 190.5q936 0 936 -741q0 -731 -936 -731q-471 0 -706.5 187.5t-235.5 543.5zM1018 1159q-260 0 -374 -85t-114 -243h230q0 100 59.5 132t214.5 32q127 0 184.5 -24.5t57.5 -83.5q0 -61 -67.5 -77.5t-290.5 -16.5v-144q223 0 290.5 -16.5 t67.5 -77.5q0 -63 -53.5 -84.5t-188.5 -21.5q-143 0 -208.5 34.5t-65.5 130.5h-230q0 -84 32 -146t79 -97t117.5 -55.5t130 -25.5t135.5 -5q481 0 481 264q0 129 -125 174q123 47 123 174q0 262 -485 262z" glyph-name="uni278C" unicode="➌"/><glyph d="M1022 -14q-471 0 -706.5 187t-235.5 544q0 360 235.5 550.5t706.5 190.5q936 0 936 -741q0 -731 -936 -731zM1157 1174l-670 -551v-215h662v-138h225v138h172v192h-172v574h-217zM1149 920v-322h-383z" glyph-name="uni278D" unicode="➍"/><glyph d="M1022 -14q-471 0 -706.5 187t-235.5 544q0 360 235.5 550.5t706.5 190.5q936 0 936 -741q0 -731 -936 -731zM764 571h-229q0 -283 477 -282q489 0 489 299q0 84 -38 144.5t-101.5 91t-133 45t-147.5 14.5q-205 0 -293 -80l41 176h576l2 176h-758l-86 -467l219 -43 q80 68 277 68q229 -2 229 -131q0 -63 -56 -93t-194 -30q-143 0 -208.5 24.5t-65.5 87.5z" glyph-name="uni278E" unicode="➎"/><glyph d="M80 717q0 360 235.5 550.5t706.5 190.5q936 0 936 -741q0 -731 -936 -731q-471 0 -706.5 187.5t-235.5 543.5zM1044 279q248 0 358.5 83.5t110.5 212.5q0 295 -462 295q-111 0 -195 -29.5t-119 -74.5q12 123 73.5 167t184.5 44q236 0 244 -88h213q-8 141 -118.5 205.5 t-340.5 64.5q-471 0 -471 -454q0 -229 121.5 -327.5t400.5 -98.5zM1020 442q-279 0 -279 144q0 141 279 141q281 0 280 -141q0 -76 -67.5 -110t-212.5 -34z" glyph-name="uni278F" unicode="➏"/><glyph d="M1022 -14q-471 0 -706.5 187t-235.5 544q0 360 235.5 550.5t706.5 190.5q936 0 936 -741q0 -731 -936 -731zM1485 1153h-934v-182h602q-168 -115 -269.5 -300.5t-105.5 -379.5h228q6 231 156.5 415.5t322.5 264.5v182z" glyph-name="uni2790" unicode="➐"/><glyph d="M1022 -14q-471 0 -706.5 187t-235.5 544q0 360 235.5 550.5t706.5 190.5q936 0 936 -741q0 -731 -936 -731zM694 784q-186 -68 -186 -231q0 -150 124 -209t386 -59t386 59t124 209q0 164 -187 231q94 57 95 152q0 125 -104.5 174t-313.5 49t-312.5 -49t-103.5 -174 q0 -95 92 -152zM1017.5 436q-147.5 0 -212 29t-64.5 102.5t63.5 102t213 28.5t213 -28.5t63.5 -102t-64.5 -102.5t-212 -29zM815 917.5q0 51.5 46 70t156.5 18.5t157 -18.5t46.5 -70t-46.5 -70t-157 -18.5t-156.5 18.5t-46 70z" glyph-name="uni2791" unicode="➑"/><glyph d="M1958 717q0 -731 -936 -731q-471 0 -706.5 187t-235.5 544q0 360 235.5 550.5t706.5 190.5q936 0 936 -741zM1300 674q-12 -123 -76.5 -167t-195.5 -44q-250 0 -254 88h-215q8 -139 125 -203.5t346 -64.5q483 0 483 452q0 229 -121.5 327.5t-400.5 98.5 q-248 0 -358.5 -83t-110.5 -214q0 -293 463 -293q111 0 194.5 29t120.5 74zM1016 713q-281 0 -281 141q0 76 67.5 109.5t213.5 33.5q279 0 278 -143q1 -141 -278 -141z" glyph-name="uni2792" unicode="➒"/><glyph d="M80 717q0 360 235.5 550.5t706.5 190.5q936 0 936 -741q0 -731 -936 -731q-471 0 -706.5 187.5t-235.5 543.5zM520 719q0 -193 125 -313.5t367 -120.5q248 0 377 113.5t129 322.5q0 225 -136.5 331.5t-363.5 106.5q-240 0 -369 -116.5t-129 -323.5zM1017.5 457 q-276.5 0 -276.5 262q0 266 276.5 266t276.5 -264t-276.5 -264z" glyph-name="u1F10C" unicode="🄌"/><glyph glyph-name="glyph376" horiz-adv-x="614"/><glyph glyph-name="glyph377" horiz-adv-x="614"/><glyph d="M1143 793l864 -793h-494l-700 662h-373v-662h-350v1436h350v-508h381l637 508h508z" glyph-name="K.aalt" horiz-adv-x="2086"/><glyph d="M80 731q0 727 936 727q469 0 705.5 -185.5t236.5 -541.5q0 -362 -236.5 -553.5t-705.5 -191.5q-936 0 -936 745zM457 723q0 -229 140 -336.5t419 -107.5q283 0 424 107.5t141 336.5q0 231 -141.5 337.5t-423.5 106.5q-281 0 -420 -106.5t-139 -337.5zM1016 526 q-121 0 -183.5 51.5t-62.5 145.5q0 197 246 197q250 0 250 -197q2 -94 -61.5 -145.5t-188.5 -51.5z" glyph-name="O.salt"/><glyph d="M80 725q0 362 228.5 547.5t707.5 185.5q471 0 706.5 -186.5t235.5 -546.5q0 -358 -237.5 -553t-704.5 -195q-936 0 -936 748zM457 725q0 -233 140 -342t419 -109v889q-279 0 -419 -105.5t-140 -332.5z" glyph-name="O.ss02"/><glyph d="M1958 725q0 -322 -192.5 -512t-571.5 -227v-232h-350v230q-764 68 -764 741q0 362 228.5 547.5t707.5 185.5q471 0 706.5 -186.5t235.5 -546.5zM1571 725q0 227 -137.5 332.5t-417.5 105.5q-279 0 -414 -104.5t-135 -333.5q0 -236 135 -343.5t414 -107.5q281 0 418 107.5 t137 343.5zM770 727q0 197 246 197q250 0 250 -197q2 -94 -61.5 -145.5t-188.5 -51.5q-121 0 -183.5 51.5t-62.5 145.5z" glyph-name="Q.aalt"/><glyph d="M1450 1188h362v-1188h-362l2 176q-205 -199 -616 -199q-756 0 -756 625q0 301 206 454.5t550 153.5q408 0 614 -211v189zM920 936q-205 0 -334 -83t-129 -257q0 -176 128 -257t335 -81q272 0 401 79t129 257q0 180 -131 261t-399 81z" glyph-name="a.aalt" horiz-adv-x="1902"/><glyph d="M80 592q0 305 221 462.5t623 157.5q195 0 342 -34.5t266 -113.5t178 -221.5t51 -344.5h-1296q29 -131 144.5 -182.5t303.5 -51.5h816v-274h-805q-111 0 -213.5 12t-222 51t-205.5 102.5t-144.5 176.5t-58.5 260zM455 705h931q-47 221 -462 221q-430 0 -469 -221z" glyph-name="e.aalt" horiz-adv-x="1841"/><glyph d="M92 0v1188h363v-1188h-363zM68 1433.5q0 100.5 53 131t153 30.5q49 0 80 -5t63 -19.5t47 -49t15 -87.5q0 -100 -52 -130t-152.5 -30t-153.5 29.5t-53 130z" glyph-name="i.aalt" horiz-adv-x="546"/><glyph d="M1028 651l776 -651h-514l-604 512h-235v-512h-361v1638h361v-845h223l557 395h563z" glyph-name="k.aalt" horiz-adv-x="1871"/><glyph d="M799 0h-344q-209 0 -286 92t-77 348v1209h365v-1188q0 -63 7 -99t29.5 -52.5t43 -19.5t69.5 -3h193v-287z" glyph-name="l.aalt" horiz-adv-x="862"/><glyph d="M932 -16q-258 0 -441.5 57t-295 196.5t-111.5 354.5q0 170 61.5 291t178 189.5t266 99t342.5 30.5q154 0 278.5 -18.5t236.5 -61.5t186.5 -111.5t117.5 -175t43 -243.5q0 -164 -64.5 -283t-183.5 -189.5t-271.5 -103t-342.5 -32.5zM455 596q0 -342 485 -342t485 342 q0 184 -122.5 260t-362.5 76t-362.5 -76t-122.5 -260zM745 594q0 133 195 133t195 -133q0 -70 -55.5 -104.5t-139.5 -34.5t-139.5 34.5t-55.5 104.5z" glyph-name="o.salt" horiz-adv-x="1873"/><glyph d="M84 592q0 618 848 618q862 0 862 -618q0 -164 -64.5 -284t-183.5 -191.5t-271.5 -105.5t-342.5 -34q-393 0 -620.5 149t-227.5 466zM455 598q0 -342 485 -342v678q-240 0 -362.5 -76t-122.5 -260z" glyph-name="o.ss02" horiz-adv-x="1873"/><glyph d="M809 1106h-739v330h2308v-457q266 233 669 233q641 0 648 -604l-5 -608h-360v571q0 182 -101.5 273.5t-281.5 91.5q-188 0 -357 -88t-212 -230v-618h-361v1106h-858v-1106h-350v1106zM4712 254q360 0 437 164h360q-35 -211 -255 -326t-572 -115q-100 0 -199.5 13.5 t-218.5 54.5t-207 105.5t-148.5 179t-60.5 262.5q0 305 221.5 461.5t622.5 156.5q195 0 342 -34.5t266 -112.5t178.5 -220.5t51.5 -344.5h-1297q29 -133 150.5 -188.5t328.5 -55.5zM4223 705h932q-47 221 -463 221q-430 0 -469 -221z" glyph-name="T_h_e.dlig" horiz-adv-x="5609"/><glyph d="M3590 608l-4 -608h-360v571q0 182 -101.5 273.5t-281.5 91.5q-188 0 -357.5 -88t-212.5 -230v-618h-360v1354h-10q-72 0 -105 -1t-72.5 -7.5t-53 -18.5t-29 -35.5t-17.5 -56.5t-2 -84v-147q123 -119 141 -299h-364q-57 211 -471 210q-485 0 -486 -321q0 -326 486 -326 q416 0 473 209h362q-27 -240 -233.5 -370t-601.5 -130q-414 0 -632 161t-218 454q0 301 217 459.5t633 158.5q188 0 332 -30q2 264 106.5 361t364.5 97h540v-659q266 233 670 233q641 0 647 -604z" glyph-name="c_h.dlig" horiz-adv-x="3680"/><glyph d="M2855 653l778 -653h-516l-541 459l-297 -207v-252h-362v1354h-14q-72 0 -105 -1t-72.5 -7.5t-53 -18.5t-29 -35.5t-17.5 -56.5t-2 -84v-147q123 -119 141 -299h-364q-57 211 -471 210q-485 0 -486 -321q0 -326 486 -326q416 0 473 209h362q-27 -240 -233.5 -370 t-601.5 -130q-414 0 -632 161t-218 454q0 301 217 459.5t633 158.5q188 0 332 -30q2 264 106.5 361t364.5 97h546v-979l781 529h561z" glyph-name="c_k.dlig" horiz-adv-x="3700"/><glyph d="M930 -23q-414 0 -632 161t-218 454q0 301 217 459.5t633 158.5q188 0 332 -30q2 264 106.5 361t364.5 97h542v-1177q2 -121 32 -147.5t120 -26.5h192v-287h-346q-209 0 -284.5 92t-75.5 348v914h-10q-72 0 -105 -1t-72.5 -7.5t-53 -18.5t-29 -35.5t-17.5 -56.5t-2 -84 v-147q123 -119 141 -299h-364q-57 211 -471 210q-485 0 -486 -321q0 -326 486 -326q416 0 473 209h362q-27 -240 -233.5 -370t-601.5 -130z" glyph-name="c_l.dlig" horiz-adv-x="2680"/><glyph d="M3156 922h-602v-340q0 -188 40 -241.5t197 -53.5h365v-297h-506q-135 0 -215 17.5t-138.5 71.5t-81 149.5t-22.5 252.5v441h-303v268h303v164h-290q-72 0 -105 -1t-72.5 -7.5t-53 -18.5t-29 -35.5t-17.5 -56.5t-2 -84v-147q123 -119 141 -299h-364q-57 211 -471 210 q-485 0 -486 -321q0 -326 486 -326q416 0 473 209h362q-27 -240 -233.5 -370t-601.5 -130q-414 0 -632 161t-218 454q0 301 217 459.5t633 158.5q188 0 332 -30q2 264 106.5 361t364.5 97h821v-448h602v-268z" glyph-name="c_t.dlig" horiz-adv-x="3307"/><glyph d="M2343 618v-618h-363v1354h-98q-72 0 -105.5 -1t-72.5 -7.5t-53.5 -18.5t-29.5 -35.5t-17 -56.5t-2 -84v-121q193 -156 192 -428q0 -598 -862 -598q-117 0 -241 10.5t-136 10.5q-53 0 -53 -33q0 -49 77.5 -65.5t333.5 -24.5q438 -8 630 -93t192 -309h-402q0 49 -26.5 77 t-126 48.5t-291.5 24.5q-408 6 -577 84t-169 266q0 135 82 215q-141 145 -141 387q0 608 856 608q166 0 301 -26q2 262 105.5 358t363.5 96h633v-659q262 233 670 233q307 0 475 -148.5t170 -455.5l-2 -608h-363v571q0 184 -101.5 274.5t-281.5 90.5q-188 0 -357 -88.5 t-210 -229.5zM940 932q-240 0 -362.5 -76t-122.5 -260q0 -178 122.5 -250t362.5 -72t362.5 72t122.5 250q0 184 -122.5 260t-362.5 76z" glyph-name="g_h.dlig" horiz-adv-x="3747"/><glyph d="M1710 1638h633v-979l780 529h561l-766 -535l779 -653h-516l-541 459l-297 -207v-252h-363v1354h-98q-72 0 -105.5 -1t-72.5 -7.5t-53.5 -18.5t-29.5 -35.5t-17 -56.5t-2 -84v-121q193 -156 192 -428q0 -598 -862 -598q-117 0 -241 10.5t-136 10.5q-53 0 -53 -33 q0 -49 77.5 -65.5t333.5 -24.5q438 -8 630 -93t192 -309h-402q0 49 -26.5 77t-126 48.5t-291.5 24.5q-408 6 -577 84t-169 266q0 135 82 215q-141 145 -141 387q0 608 856 608q166 0 301 -26q2 262 105.5 358t363.5 96zM455 596q0 -178 122.5 -250t362.5 -72t362.5 72 t122.5 250q0 184 -122.5 260t-362.5 76t-362.5 -76t-122.5 -260z" glyph-name="g_k.dlig" horiz-adv-x="3764"/><glyph d="M2499 287h192v-287h-346q-209 0 -284.5 92t-75.5 348v914h-103q-72 0 -105.5 -1t-72.5 -7.5t-53.5 -18.5t-29.5 -35.5t-17 -56.5t-2 -84v-121q193 -156 192 -428q0 -598 -862 -598q-117 0 -241 10.5t-136 10.5q-53 0 -53 -33q0 -49 77.5 -65.5t333.5 -24.5 q438 -8 630 -93t192 -309h-402q0 49 -26.5 77t-126 48.5t-291.5 24.5q-408 6 -577 84t-169 266q0 135 82 215q-141 145 -141 387q0 608 856 608q166 0 301 -26q2 262 105.5 358t363.5 96h637v-1177q2 -121 32 -147.5t120 -26.5zM940 932q-240 0 -362.5 -76t-122.5 -260 q0 -178 122.5 -250t362.5 -72t362.5 72t122.5 250q0 184 -122.5 260t-362.5 76z" glyph-name="g_l.dlig" horiz-adv-x="2752"/><glyph d="M3207 -10h-506q-135 0 -215 17.5t-138 71.5t-80.5 149.5t-22.5 252.5v441h-306v268h306v164h-363q-72 0 -105.5 -1t-72.5 -7.5t-53.5 -18.5t-29.5 -35.5t-17 -56.5t-2 -84v-121q193 -156 192 -428q0 -598 -862 -598q-117 0 -241 10.5t-136 10.5q-53 0 -53 -33 q0 -49 77.5 -65.5t333.5 -24.5q438 -8 630 -93t192 -309h-402q0 49 -26.5 77t-126 48.5t-291.5 24.5q-408 6 -577 84t-169 266q0 135 82 215q-141 145 -141 387q0 608 856 608q166 0 301 -26q2 262 105.5 358t363.5 96h895v-448h602v-268h-602v-340q0 -188 40 -241.5 t198 -53.5h364v-297zM455 596q0 -178 122.5 -250t362.5 -72t362.5 72t122.5 250q0 184 -122.5 260t-362.5 76t-362.5 -76t-122.5 -260z" glyph-name="g_t.dlig" horiz-adv-x="3358"/><glyph d="M3152 0v571q0 182 -101.5 273.5t-281.5 91.5q-188 0 -357 -88t-212 -230v-618h-361v1354h-53q-72 0 -104.5 -1t-72.5 -7.5t-53.5 -18.5t-29 -35.5t-17.5 -56.5t-2 -84v-39q164 -92 164 -299h-364q0 76 -93.5 100.5t-336.5 24.5q-238 0 -324 -18.5t-86 -67.5 q0 -29 14.5 -45t68.5 -29.5t136 -21.5t242 -21q385 -27 504 -55q221 -53 266 -205q12 -45 12 -100q0 -225 -190.5 -311.5t-573.5 -86.5q-154 0 -270.5 9.5t-238.5 37t-199.5 74.5t-127 130t-49.5 196h365q0 -98 109.5 -137t390.5 -39q182 0 271 10t120 32.5t31 67.5 q0 66 -75 84.5t-386 36.5q-150 8 -244 17.5t-193.5 25t-155.5 40t-104.5 61t-68 90t-19.5 125.5q0 106 59.5 181t171 116t248 58t316.5 17q147 0 248 -8q6 252 111.5 344t359.5 92h584v-659q266 233 669 233q641 0 647 -604l-4 -608h-360z" glyph-name="s_h.dlig" horiz-adv-x="3606"/><glyph d="M3576 0h-514l-541 459l-299 -207v-252h-360v1354h-76q-72 0 -104.5 -1t-72.5 -7.5t-53.5 -18.5t-29 -35.5t-17.5 -56.5t-2 -84v-39q164 -92 164 -299h-364q0 76 -93.5 100.5t-336.5 24.5q-238 0 -324 -18.5t-86 -67.5q0 -29 14.5 -45t68.5 -29.5t136 -21.5t242 -21 q385 -27 504 -55q221 -53 266 -205q12 -45 12 -100q0 -225 -190.5 -311.5t-573.5 -86.5q-154 0 -270.5 9.5t-238.5 37t-199.5 74.5t-127 130t-49.5 196h365q0 -98 109.5 -137t390.5 -39q182 0 271 10t120 32.5t31 67.5q0 66 -75 84.5t-386 36.5q-150 8 -244 17.5t-193.5 25 t-155.5 40t-104.5 61t-68 90t-19.5 125.5q0 106 59.5 181t171 116t248 58t316.5 17q147 0 248 -8q6 252 111.5 344t359.5 92h606v-979l780 529h564l-768 -535z" glyph-name="s_k.dlig" horiz-adv-x="3643"/><glyph d="M2378 287h192v-287h-344q-209 0 -285.5 92t-76.5 348v914h-78q-72 0 -104.5 -1t-72.5 -7.5t-53.5 -18.5t-29 -35.5t-17.5 -56.5t-2 -84v-39q164 -92 164 -299h-364q0 76 -93.5 100.5t-336.5 24.5q-238 0 -324 -18.5t-86 -67.5q0 -29 14.5 -45t68.5 -29.5t136 -21.5 t242 -21q385 -27 504 -55q221 -53 266 -205q12 -45 12 -100q0 -225 -190.5 -311.5t-573.5 -86.5q-154 0 -270.5 9.5t-238.5 37t-199.5 74.5t-127 130t-49.5 196h365q0 -98 109.5 -137t390.5 -39q182 0 271 10t120 32.5t31 67.5q0 66 -75 84.5t-386 36.5q-150 8 -244 17.5 t-193.5 25t-155.5 40t-104.5 61t-68 90t-19.5 125.5q0 106 59.5 181t171 116t248 58t316.5 17q147 0 248 -8q6 252 111.5 344t359.5 92h612v-1177q0 -63 7.5 -99t30 -52.5t43 -19.5t69.5 -3z" glyph-name="s_l.dlig" horiz-adv-x="2652"/><glyph d="M2419 922v-340q0 -188 40 -241.5t197 -53.5h365v-297h-506q-135 0 -215 17.5t-138.5 71.5t-81 149.5t-22.5 252.5v441h-303v268h303v164h-272q-72 0 -104.5 -1t-72.5 -7.5t-53.5 -18.5t-29 -35.5t-17.5 -56.5t-2 -84v-39q164 -92 164 -299h-364q0 76 -93.5 100.5 t-336.5 24.5q-238 0 -324 -18.5t-86 -67.5q0 -29 14.5 -45t68.5 -29.5t136 -21.5t242 -21q385 -27 504 -55q221 -53 266 -205q12 -45 12 -100q0 -225 -190.5 -311.5t-573.5 -86.5q-154 0 -270.5 9.5t-238.5 37t-199.5 74.5t-127 130t-49.5 196h365q0 -98 109.5 -137 t390.5 -39q182 0 271 10t120 32.5t31 67.5q0 66 -75 84.5t-386 36.5q-150 8 -244 17.5t-193.5 25t-155.5 40t-104.5 61t-68 90t-19.5 125.5q0 106 59.5 181t171 116t248 58t316.5 17q147 0 248 -8q6 252 111.5 344t359.5 92h803v-448h602v-268h-602z" glyph-name="s_t.dlig" horiz-adv-x="3172"/><glyph d="M743 1190h1604q836 0 836 -522v-668h-377v135q-123 -88 -271.5 -123t-371.5 -35q-653 0 -654 371q0 387 729 387h560q-14 59 -53.5 97t-102 56.5t-121.5 25t-143 6.5h-35h-1323v2h-277v-340q0 -188 40 -241.5t198 -53.5h365v-297h-506q-135 0 -215 17.5t-138.5 71.5 t-81 149.5t-22.5 252.5v441h-303v268h303v244h360v-244zM2806 381v117h-520q-209 0 -306.5 -28t-97.5 -103q0 -45 31 -74t87 -43t115.5 -19.5t137.5 -5.5q383 0 553 156z" glyph-name="t_a.dlig" horiz-adv-x="3272"/><glyph d="M80 713q0 344 216 538.5t615 194.5q182 0 330 -41t261.5 -126t176 -227.5t62.5 -334.5q0 -348 -214 -537.5t-628 -189.5q-403 0 -611 200.5t-208 522.5zM1317 971l-612 -666q86 -27 206 -26q461 0 461 438q0 156 -55 254zM451 713q0 -152 53 -248l612 665q-92 29 -205 29 q-460 0 -460 -446z" glyph-name="zero.aalt" horiz-adv-x="1820"/><glyph d="M535 190q-209 0 -338 130.5t-129 363.5q0 150 42 283t128 246.5t238.5 180t354.5 66.5v-297q-301 0 -397 -235q80 29 176 28q162 0 263.5 -95t101.5 -257q0 -186 -120.5 -300t-319.5 -114z" glyph-name="glyph410" horiz-adv-x="1032"/><glyph d="M68 684q0 150 42 283t128 246.5t238.5 180t354.5 66.5v-297q-301 0 -397 -235q80 29 176 28q162 0 263.5 -95t101.5 -257q0 -186 -121 -300t-319 -114q-209 0 -338 130.5t-129 363.5zM1550 956q162 0 263.5 -95t101.5 -257q0 -186 -121 -300t-319 -114q-209 0 -338 130.5 t-129 363.5q0 150 42 283t128 246.5t238.5 180t355.5 66.5v-297q-301 0 -398 -235q80 28 176 28z" glyph-name="glyph411" horiz-adv-x="1972"/><glyph d="M2513 707q0 -291 -123 -435.5t-432 -144.5h-662q-154 0 -266 20.5t-205.5 71.5t-141.5 146.5t-48 234.5q0 145 45 242.5t137 149.5t205 72.5t274 20.5q319 0 490.5 -106.5t171.5 -351.5v-279q106 4 173 94t67 265q0 274 -217.5 402t-669.5 128q-465 0 -685 -144.5 t-220 -488.5q0 -342 199.5 -493.5t641.5 -153.5h783v-270h-783q-580 0 -868.5 220t-288.5 697q0 465 302 689.5t919 224.5q586 0 894 -209t308 -602zM1300.5 862q-71.5 0 -123 -7t-114 -29.5t-96 -80t-33.5 -143.5q0 -84 33.5 -139t95 -78t114 -30t123.5 -7h371l-2 299 q-4 70 -38 116t-94 66.5t-112.5 26.5t-124 6zM1153 604q0 106 145 107q137 0 142 -93v-118h-142q-145 0 -145 104z" glyph-name="at.aalt" horiz-adv-x="2603"/></font>
</defs>
</svg>
